<svg width="16" height="16" viewBox="0 0 16 16" fill="none" xmlns="http://www.w3.org/2000/svg">
<g clip-path="url(#clip0_677_38286)">
<path d="M6.90541 0.977876C4.69985 1.29454 2.67208 2.77788 1.6443 4.82788C0.505411 7.07788 0.683189 9.78899 2.09986 11.9723C2.42763 12.4723 3.52763 13.5723 4.02763 13.9001C4.92763 14.4834 5.9443 14.8723 6.96097 15.0223C10.0221 15.4779 12.9832 13.9279 14.3776 11.1279C15.3554 9.17788 15.3387 6.76121 14.3387 4.79454C12.9443 2.0501 9.98319 0.527876 6.90541 0.977876ZM10.3443 5.48343C11.6221 6.76121 12.6665 7.83343 12.6665 7.86677C12.6665 7.9001 12.3221 8.26121 11.9054 8.67232C10.4554 10.089 9.39986 10.6057 7.96652 10.6112C6.57208 10.6112 5.47208 10.0668 4.02763 8.65566L3.24986 7.89454L5.61097 5.53343C6.91097 4.22788 7.98319 3.16677 7.99986 3.16677C8.01652 3.16677 9.07208 4.21121 10.3443 5.48343ZM4.77208 9.85565C5.61097 10.4945 6.52208 10.8834 7.48319 11.0001C8.88874 11.1779 10.4387 10.5945 11.7221 9.40566L12.0387 9.11677L12.3221 9.40566L12.611 9.7001L12.0443 10.2557C11.0499 11.2279 10.2943 11.6668 9.11097 11.9557C8.6443 12.0668 7.23874 12.0501 6.72208 11.9279C5.66652 11.6723 4.88874 11.2223 3.98319 10.339L3.32763 9.7001L3.62208 9.40566L3.91097 9.11121L4.13874 9.32788C4.26097 9.44454 4.5443 9.68343 4.77208 9.85565Z" fill="white"/>
<path d="M6.36099 6.28346L4.74988 7.89457L5.13877 8.25568C6.8221 9.81124 8.59988 9.9779 10.2499 8.73346C10.6554 8.43346 11.1665 7.94457 11.1665 7.86124C11.1665 7.80568 8.05543 4.66679 7.99988 4.66679C7.98321 4.66679 7.24432 5.39457 6.36099 6.28346ZM10.361 8.13901C10.211 8.2779 10.0388 8.40568 9.97766 8.42235C9.89988 8.45013 9.66654 8.25013 8.9221 7.50568L7.9721 6.55568L7.02766 7.50013C6.51099 8.01679 6.05543 8.44457 6.01654 8.44457C5.98321 8.44457 5.81099 8.31679 5.63877 8.15568L5.32766 7.87235L6.64988 6.54457L7.9721 5.22235L9.30543 6.56124L10.6388 7.89457L10.361 8.13901Z" fill="white"/>
</g>
<defs>
<clipPath id="clip0_677_38286">
<rect width="16" height="16" fill="white"/>
</clipPath>
</defs>
</svg>
