<svg width="16" height="16" viewBox="0 0 16 16" fill="none" xmlns="http://www.w3.org/2000/svg">
<path d="M7.20132 11.8466C7.26287 11.8467 7.32379 11.8589 7.38062 11.8826C7.43745 11.9062 7.48907 11.9408 7.53252 11.9844C7.57598 12.0279 7.61043 12.0797 7.6339 12.1366C7.65737 12.1935 7.66941 12.2544 7.66932 12.316C7.66923 12.3775 7.65702 12.4384 7.63339 12.4953C7.60976 12.5521 7.57516 12.6037 7.53158 12.6472C7.488 12.6906 7.43628 12.7251 7.37939 12.7485C7.32249 12.772 7.26153 12.784 7.19999 12.784C7.07569 12.7838 6.95655 12.7342 6.86879 12.6462C6.78102 12.5582 6.73181 12.4389 6.73199 12.3146C6.73216 12.1903 6.78171 12.0712 6.86973 11.9834C6.95775 11.8957 7.07702 11.8465 7.20132 11.8466ZM14.5507 8.94863C14.4891 8.94858 14.4282 8.93642 14.3713 8.91283C14.3145 8.88923 14.2628 8.85467 14.2194 8.81112C14.1759 8.76757 14.1414 8.71588 14.1179 8.659C14.0944 8.60213 14.0823 8.54117 14.0823 8.47963C14.0824 8.41808 14.0945 8.35715 14.1181 8.3003C14.1417 8.24346 14.1763 8.19182 14.2198 8.14833C14.2634 8.10484 14.3151 8.07035 14.3719 8.04684C14.4288 8.02333 14.4898 8.01125 14.5513 8.01129C14.6756 8.01138 14.7948 8.06084 14.8826 8.1488C14.9704 8.23675 15.0197 8.356 15.0197 8.48029C15.0196 8.60459 14.9701 8.72376 14.8821 8.81159C14.7942 8.89942 14.675 8.94872 14.5507 8.94863ZM14.5507 7.03129C14.1664 7.03165 13.7979 7.18446 13.5262 7.45618C13.2545 7.72791 13.1017 8.09635 13.1013 8.48063C13.1013 8.63596 13.1273 8.79063 13.178 8.94129L8.39065 11.49C8.25791 11.2972 8.08029 11.1396 7.87309 11.0308C7.6659 10.922 7.43535 10.8652 7.20132 10.8653C6.64865 10.8653 6.14532 11.182 5.90132 11.676L1.60065 9.40796C1.14599 9.1693 0.805988 8.42129 0.841988 7.73996C0.860654 7.38463 0.983321 7.10863 1.17065 7.00196C1.28932 6.93529 1.43199 6.94063 1.58399 7.01996L1.61199 7.0353C2.75199 7.63529 6.48132 9.59996 6.63865 9.67263C6.88065 9.78529 7.01532 9.83063 7.42865 9.63463L15.138 5.62529C15.2513 5.58263 15.3833 5.47396 15.3833 5.30929C15.3833 5.08129 15.1473 4.99129 15.1467 4.99129C14.708 4.78129 14.034 4.46596 13.3767 4.15796C11.9713 3.49996 10.3787 2.75463 9.67932 2.38796C9.07532 2.07196 8.58932 2.33863 8.50265 2.39196L8.33465 2.4753C5.18665 4.03196 0.973321 6.11863 0.733321 6.26463C0.304654 6.52596 0.0386544 7.04663 0.00398775 7.69263C-0.0493456 8.71729 0.472654 9.78596 1.21999 10.1773L5.76799 12.5226C5.81809 12.8671 5.99047 13.1821 6.25363 13.41C6.5168 13.638 6.85318 13.7636 7.20132 13.764C7.58154 13.7633 7.94632 13.6135 8.21723 13.3467C8.48814 13.0799 8.64353 12.7175 8.64999 12.3373L13.6593 9.62196C13.9127 9.82063 14.228 9.92929 14.5507 9.92929C14.9349 9.92894 15.3034 9.77613 15.5751 9.50441C15.8468 9.23268 15.9996 8.86424 16 8.47996C15.9996 8.09568 15.8468 7.72724 15.5751 7.45552C15.3034 7.18379 14.9349 7.03098 14.5507 7.03063" fill="currentColor"/>
</svg>
