<svg width="19" height="19" viewBox="0 0 19 19" fill="none" xmlns="http://www.w3.org/2000/svg">
<g clip-path="url(#clip0_365_17312)">
<path d="M9.35986 18.5C14.3304 18.5 18.3599 14.4705 18.3599 9.5C18.3599 4.52947 14.3304 0.5 9.35986 0.5C4.38933 0.5 0.359863 4.5294 0.359863 9.5C0.359863 14.4705 4.38926 18.5 9.35986 18.5Z" fill="white"/>
<path d="M9.60474 13.7393V17.8852L14.7288 10.6648L9.60474 13.7393ZM14.5426 9.31367L9.60474 1.11523V7.07773L14.5426 9.31367Z" fill="#3B3735"/>
<path d="M9.60474 7.54297V12.6205L14.496 9.77891L9.60474 7.54297Z" fill="#1F1D19"/>
<path d="M4.20068 9.31367L9.13845 1.11523V7.07773L4.20068 9.31367Z" fill="#959190"/>
<path d="M9.13804 7.54297V12.6205L4.24683 9.77891L9.13804 7.54297Z" fill="#403C3A"/>
<path d="M9.1385 13.7385V17.8845L4.0144 10.6641L9.1385 13.7385Z" fill="#959190"/>
</g>
<defs>
<clipPath id="clip0_365_17312">
<rect width="18" height="18" fill="white" transform="translate(0.359863 0.5)"/>
</clipPath>
</defs>
</svg>
