<svg width="16" height="16" viewBox="0 0 16 16" fill="none" xmlns="http://www.w3.org/2000/svg">
<path d="M6 14H8C10.8284 14 12.2426 14 13.1213 13.1213C14 12.2426 14 10.8284 14 8V8C14 5.17157 14 3.75736 13.1213 2.87868C12.2426 2 10.8284 2 8 2V2C5.17157 2 3.75736 2 2.87868 2.87868C2 3.75736 2 5.17157 2 8V10" stroke="#D4D4D4" stroke-width="2" stroke-linecap="round"/>
<path d="M10 6H11V5H10V6ZM3.95956 10.6262C3.56904 11.0168 3.56904 11.6499 3.95956 12.0404C4.35008 12.431 4.98325 12.431 5.37377 12.0404L3.95956 10.6262ZM5.33333 7H10V5H5.33333V7ZM9 6V10.6667H11V6H9ZM9.29289 5.29289L3.95956 10.6262L5.37377 12.0404L10.7071 6.70711L9.29289 5.29289Z" fill="#D4D4D4"/>
</svg>
