<svg width="16" height="16" viewBox="0 0 16 16" fill="none" xmlns="http://www.w3.org/2000/svg">
<path d="M5.66663 8.33331L10.3333 8.33331" stroke="white" stroke-linecap="round"/>
<path d="M5.66663 10.3333L8.33329 10.3333" stroke="white" stroke-linecap="round"/>
<path d="M3.66663 4.73331C3.66663 3.89323 3.66663 3.47319 3.83012 3.15233C3.97393 2.87008 4.2034 2.64061 4.48564 2.4968C4.80651 2.33331 5.22655 2.33331 6.06663 2.33331H8.00585C8.37273 2.33331 8.55618 2.33331 8.72881 2.37476C8.88186 2.4115 9.02818 2.47211 9.16239 2.55435C9.31376 2.64712 9.44348 2.77683 9.7029 3.03626L11.6303 4.9637C11.8898 5.22313 12.0195 5.35284 12.1123 5.50422C12.1945 5.63843 12.2551 5.78474 12.2918 5.9378C12.3333 6.11043 12.3333 6.29387 12.3333 6.66076V11.2666C12.3333 12.1067 12.3333 12.5268 12.1698 12.8476C12.026 13.1299 11.7965 13.3593 11.5143 13.5032C11.1934 13.6666 10.7734 13.6666 9.93329 13.6666H6.06663C5.22655 13.6666 4.80651 13.6666 4.48564 13.5032C4.2034 13.3593 3.97393 13.1299 3.83012 12.8476C3.66663 12.5268 3.66663 12.1067 3.66663 11.2666V4.73331Z" stroke="white"/>
<path d="M8.33337 2.33331V3.93331C8.33337 4.77339 8.33337 5.19343 8.49686 5.5143C8.64067 5.79654 8.87015 6.02601 9.15239 6.16982C9.47326 6.33331 9.8933 6.33331 10.7334 6.33331H12.3334" stroke="white"/>
</svg>
