<svg width="20" height="21" viewBox="0 0 20 21" fill="none" xmlns="http://www.w3.org/2000/svg">
<rect x="10.8333" y="12.1667" width="1.66667" height="1.66667" rx="0.833333" fill="white"/>
<path d="M8.33333 12.1667H5" stroke="white" stroke-linecap="round"/>
<path d="M6.66675 10.5L6.66675 13.8333" stroke="white" stroke-linecap="round"/>
<rect x="13.3333" y="10.5" width="1.66667" height="1.66667" rx="0.833333" fill="white"/>
<path d="M11.6666 7.16666V7.16666C11.6666 7.06683 11.6666 7.01691 11.6646 6.97233C11.6266 6.12149 11.0539 5.38804 10.2377 5.14483C10.195 5.13208 10.1465 5.11998 10.0497 5.09576L9.99992 5.08332C9.8558 5.04729 9.78374 5.02928 9.72051 5.00893C8.94013 4.75777 8.39205 4.0558 8.33766 3.2378C8.33325 3.17153 8.33325 3.09725 8.33325 2.9487V2.16666" stroke="white" stroke-linecap="round"/>
<path d="M2.5 12.1667C2.5 10.0343 2.5 8.96814 3.01662 8.23367C3.14962 8.04458 3.30477 7.87533 3.4781 7.73024C4.15136 7.16666 5.12869 7.16666 7.08333 7.16666H12.9167C14.8713 7.16666 15.8486 7.16666 16.5219 7.73024C16.6952 7.87533 16.8504 8.04458 16.9834 8.23367C17.5 8.96814 17.5 10.0343 17.5 12.1667C17.5 14.299 17.5 15.3652 16.9834 16.0996C16.8504 16.2887 16.6952 16.458 16.5219 16.6031C15.8486 17.1667 14.8713 17.1667 12.9167 17.1667H7.08333C5.12869 17.1667 4.15136 17.1667 3.4781 16.6031C3.30477 16.458 3.14962 16.2887 3.01662 16.0996C2.5 15.3652 2.5 14.299 2.5 12.1667Z" stroke="white"/>
</svg>
