<svg width="16" height="16" viewBox="0 0 16 16" fill="none" xmlns="http://www.w3.org/2000/svg">
<g clip-path="url(#clip0_330_10761)">
<path fill-rule="evenodd" clip-rule="evenodd" d="M8.00019 0.333252C6.10101 0.334237 4.2641 1.00689 2.81792 2.23093C1.37175 3.45498 0.410612 5.15059 0.106373 7.01458C-0.197866 8.87858 0.174628 10.7894 1.15726 12.4054C2.13989 14.0213 3.66857 15.2371 5.46996 15.8352C5.86738 15.909 6.01707 15.6627 6.01707 15.4532C6.01707 15.2438 6.00912 14.6366 6.00647 13.9727C3.78094 14.4535 3.31067 13.0336 3.31067 13.0336C2.94769 12.1115 2.4231 11.8692 2.4231 11.8692C1.69715 11.3766 2.47742 11.3858 2.47742 11.3858C3.28153 11.4424 3.70411 12.2064 3.70411 12.2064C4.41681 13.4221 5.57594 13.0705 6.03164 12.865C6.10318 12.35 6.31116 11.9996 6.54034 11.8007C4.76256 11.6005 2.8947 10.9182 2.8947 7.8702C2.88368 7.07972 3.17869 6.31529 3.71868 5.73504C3.63655 5.53483 3.36233 4.72607 3.79684 3.62754C3.79684 3.62754 4.46848 3.41416 5.99721 4.44288C7.30845 4.08633 8.69192 4.08633 10.0032 4.44288C11.5306 3.41416 12.2009 3.62754 12.2009 3.62754C12.6367 4.72344 12.3625 5.53219 12.2804 5.73504C12.8221 6.31538 13.1177 7.08115 13.1057 7.87283C13.1057 10.9274 11.2338 11.6005 9.4534 11.7967C9.73954 12.0444 9.99522 12.5278 9.99522 13.2707C9.99522 14.335 9.98594 15.1911 9.98594 15.4532C9.98594 15.6653 10.1303 15.9129 10.5357 15.8352C12.3373 15.237 13.8661 14.0211 14.8488 12.4048C15.8314 10.7886 16.2037 8.87745 15.8991 7.01329C15.5945 5.14912 14.6329 3.45349 13.1862 2.22966C11.7396 1.00582 9.90224 0.333613 8.00283 0.333252H8.00019Z" fill="currentColor"/>
<path d="M5.35189 13.3169C5.35189 13.3814 5.27771 13.4367 5.18233 13.438C5.08695 13.4394 5.00879 13.3867 5.00879 13.3221C5.00879 13.2576 5.08297 13.2023 5.17835 13.201C5.27373 13.1996 5.35189 13.251 5.35189 13.3169Z" fill="currentColor"/>
<path d="M5.96127 13.2154C5.9732 13.28 5.90696 13.3472 5.81158 13.363C5.7162 13.3788 5.63274 13.3406 5.62082 13.2774C5.6089 13.2141 5.67778 13.1456 5.77051 13.1285C5.86324 13.1114 5.94935 13.1509 5.96127 13.2154Z" fill="currentColor"/>
<path d="M4.69744 13.272C4.67757 13.3339 4.58749 13.3616 4.4974 13.3352C4.40732 13.3089 4.34771 13.2351 4.36493 13.1719C4.38215 13.1087 4.47356 13.0797 4.56497 13.1087C4.65637 13.1377 4.71466 13.2075 4.69744 13.272Z" fill="currentColor"/>
<path d="M4.09737 13.014C4.05365 13.0627 3.9649 13.0496 3.89204 12.9837C3.81918 12.9178 3.80195 12.8283 3.84567 12.7809C3.88939 12.7334 3.97814 12.7466 4.05365 12.8111C4.12916 12.8757 4.14373 12.9666 4.09737 13.014Z" fill="currentColor"/>
<path d="M3.66949 12.5714C3.62047 12.6056 3.53701 12.5714 3.49064 12.5029C3.47782 12.4906 3.46763 12.4758 3.46066 12.4595C3.4537 12.4433 3.4501 12.4257 3.4501 12.408C3.4501 12.3903 3.4537 12.3728 3.46066 12.3565C3.46763 12.3402 3.47782 12.3255 3.49064 12.3132C3.53966 12.2803 3.62312 12.3132 3.66949 12.3804C3.71585 12.4475 3.71718 12.5371 3.66949 12.5714Z" fill="currentColor"/>
<path d="M3.3542 12.1142C3.32677 12.1279 3.29538 12.1318 3.26542 12.125C3.23545 12.1183 3.20877 12.1014 3.18994 12.0773C3.13828 12.022 3.12767 11.9456 3.16741 11.9113C3.20715 11.8771 3.2787 11.8929 3.33036 11.9482C3.38202 12.0035 3.39395 12.0799 3.3542 12.1142Z" fill="currentColor"/>
<path d="M3.02963 11.7547C3.01241 11.7942 2.94883 11.806 2.89716 11.7784C2.8455 11.7507 2.80708 11.6993 2.82563 11.6585C2.84418 11.6177 2.90644 11.6071 2.9581 11.6348C3.00977 11.6625 3.04951 11.7152 3.02963 11.7547Z" fill="currentColor"/>
</g>
<defs>
<clipPath id="clip0_330_10761">
<rect width="16" height="16" fill="white"/>
</clipPath>
</defs>
</svg>
