<svg width="74" height="20" viewBox="0 0 74 20" fill="none" xmlns="http://www.w3.org/2000/svg">
<g clip-path="url(#clip0_96_170)">
<mask id="mask0_96_170" style="mask-type:luminance" maskUnits="userSpaceOnUse" x="-37" y="-65" width="148" height="147">
<path d="M-36.2264 81.8867H110.189V-64.5284H-36.2264V81.8867Z" fill="white"/>
</mask>
<g mask="url(#mask0_96_170)">
<path d="M24.4723 14.5869H26.554V0.640065H24.4723V14.5869Z" fill="white"/>
<path d="M0.281616 10.1941L0.868225 10.1646C1.06995 12.6572 3.00887 14.2393 5.61126 14.3811C8.43802 14.5349 9.56257 13.3042 9.65056 11.6888C9.75644 9.74622 8.39654 9.09793 5.29254 8.25197C2.4106 7.4593 0.827555 6.36809 0.971123 3.73032C1.0892 1.5627 3.40039 0.0273769 5.86817 0.161862C8.40332 0.299872 10.1097 1.1926 10.48 4.30975L9.91587 4.34052C9.49967 1.65164 8.21948 0.782092 5.84146 0.652623C4.11403 0.558538 2.55864 1.43771 2.4773 2.93046C2.37603 4.79129 3.50912 5.46819 6.17008 6.18738C9.49845 7.04554 11.3777 8.07071 11.2351 10.6882C11.1093 12.9988 9.26378 15.0722 5.58455 14.8718C2.62331 14.7105 0.449858 12.8899 0.281616 10.1941Z" fill="white"/>
<path d="M14.9742 7.61078H17.3489C19.7001 7.61078 20.6814 6.40449 20.6814 4.27821C20.6814 1.86575 19.7614 0.904698 17.4102 0.904698H14.9742V7.61078ZM17.5329 0.43454C21.3969 0.43454 22.7464 1.72259 22.7464 4.27821C22.7464 6.67034 21.0494 8.10141 17.3897 8.10141H14.9742V14.5415H12.8888V0.43454H17.5329Z" fill="white"/>
<path d="M50.8435 0.50791V0.999482H43.6701V6.97932H48.319V7.47076H43.6701V14.1467H50.7968V14.6382H41.5814V0.50791H50.8435Z" fill="white"/>
<path d="M63.6884 0.440898V0.848012H64.0686C64.3116 0.848012 64.5085 1.045 64.5085 1.28808V19.5973C64.5085 19.8622 64.9249 19.8109 65.1331 19.6027L71.1422 15.4762C71.3605 15.3285 71.2957 15.0232 71.2957 14.8151L71.3004 1.22232C71.2979 1.01639 71.4641 0.848012 71.67 0.848012H73.5849V0.440898H63.6884Z" fill="white"/>
<path d="M52.6564 0.440858V0.847972H54.5291C54.8744 0.847972 55.1544 1.12792 55.1544 1.47322V14.5812C55.1544 14.8461 55.5706 14.7948 55.7788 14.5866L61.6524 10.4601C61.8706 10.3123 61.8058 10.0071 61.8058 9.79895L61.8106 1.22228C61.808 1.01635 61.9742 0.847972 62.1801 0.847972H62.6385V0.440858H52.6564Z" fill="white"/>
<path d="M39.9807 0.402394H34.7545C34.7545 0.402394 28.7279 0.259638 28.2024 7.52725C28.2024 7.52725 27.9122 13.1698 33.8992 14.5062C34.3791 14.6133 34.8712 14.6606 35.3629 14.6606H39.9807V14.1703H35.6441C34.0654 14.1703 32.5593 13.436 31.643 12.1504C30.9359 11.1582 30.3628 9.68579 30.2862 7.50529C30.2862 7.50529 29.7131 3.10538 33.8306 1.23167C34.3375 1.00093 34.8899 0.884748 35.447 0.884748H39.9827L39.9807 0.402394Z" fill="white"/>
</g>
</g>
<defs>
<clipPath id="clip0_96_170">
<rect width="73.5849" height="20" fill="white"/>
</clipPath>
</defs>
</svg>
