<svg width="16" height="16" viewBox="0 0 16 16" fill="none" xmlns="http://www.w3.org/2000/svg">
<path d="M8.66658 4.66667V2H7.33325C5.44763 2 4.50482 2 3.91904 2.58579C3.33325 3.17157 3.33325 4.11438 3.33325 6V10C3.33325 11.8856 3.33325 12.8284 3.91904 13.4142C4.50482 14 5.44763 14 7.33325 14H8.66658C10.5522 14 11.495 14 12.0808 13.4142C12.6666 12.8284 12.6666 11.8856 12.6666 10V6H9.99992C9.37138 6 9.05711 6 8.86185 5.80474C8.66658 5.60948 8.66658 5.29521 8.66658 4.66667Z" fill="currentColor"/>
<path d="M8.78097 2H5.99992C4.74284 2 4.1143 2 3.72378 2.39052C3.33325 2.78105 3.33325 3.40959 3.33325 4.66667V11.3333C3.33325 12.5904 3.33325 13.219 3.72378 13.6095C4.1143 14 4.74284 14 5.99992 14H9.99992C11.257 14 11.8855 14 12.2761 13.6095C12.6666 13.219 12.6666 12.5904 12.6666 11.3333V5.88562C12.6666 5.61312 12.6666 5.47687 12.6158 5.35435C12.5651 5.23184 12.4687 5.1355 12.2761 4.94281L9.72378 2.39052C9.53109 2.19784 9.43475 2.10149 9.31223 2.05075C9.18972 2 9.05347 2 8.78097 2Z" stroke="currentColor" stroke-width="1.2"/>
<path d="M8.66675 2V4.66667C8.66675 5.29521 8.66675 5.60948 8.86201 5.80474C9.05727 6 9.37154 6 10.0001 6H12.6667" stroke="currentColor" stroke-width="1.2"/>
</svg>
