<svg width="13" height="12" viewBox="0 0 13 12" fill="none" xmlns="http://www.w3.org/2000/svg">
<path d="M12.1821 5.2355C12.6549 5.2355 12.8529 4.62662 12.4692 4.34693L6.623 0.0946733C6.45222 -0.0315578 6.21956 -0.0315578 6.0463 0.0946733L0.202542 4.34693C-0.181102 4.62662 0.0169079 5.2355 0.489656 5.2355H1.43763V10.9604H0.336198C0.26937 10.9604 0.214917 11.0149 0.214917 11.0817V11.8787C0.214917 11.9455 0.26937 12 0.336198 12H12.3356C12.4024 12 12.4569 11.9455 12.4569 11.8787V11.0817C12.4569 11.0149 12.4024 10.9604 12.3356 10.9604H11.2342V5.2355H12.1821ZM4.33104 10.958H2.53906V5.2355H4.33104V10.958ZM7.22446 10.958H5.43247V5.2355H7.22446V10.958ZM10.1327 10.958H8.32589V5.2355H10.1327V10.958ZM2.18511 4.19347L6.33589 1.17383L10.4842 4.19347H2.18511Z" fill="white"/>
</svg>
