<svg width="19" height="19" viewBox="0 0 19 19" fill="none" xmlns="http://www.w3.org/2000/svg">
<g clip-path="url(#clip0_365_17373)">
<path d="M18.2621 9.5C18.2621 14.4167 14.2767 18.4022 9.35994 18.4022C4.4432 18.4022 0.457764 14.4167 0.457764 9.5C0.457764 4.58326 4.4432 0.597828 9.35994 0.597828C14.2767 0.597828 18.2621 4.58326 18.2621 9.5Z" fill="white" stroke="#383D51" stroke-width="0.5"/>
<path d="M6.76088 16.0739C10.1261 16.0739 10.1261 16.0238 10.6966 15.8548C11.4417 15.6333 8.5914 13.66 6.76088 13.66C4.93036 13.66 3.44653 14.2 3.44653 14.8667C3.44653 15.5335 4.93036 16.0739 6.76088 16.0739Z" fill="black"/>
<path d="M14.4018 5.80961L14.5563 5.9763L14.4209 6.15904C10.0328 12.0928 7.50424 14.7795 6.43167 14.4191C5.77819 14.1996 5.12315 13.5394 4.46811 12.5811C4.23799 12.2428 4.02334 11.8942 3.8248 11.5363C3.71965 11.349 3.61983 11.1588 3.52546 10.9658C3.46525 10.848 3.42178 10.7224 3.39633 10.5925L3.39319 10.5773C3.38723 10.5443 3.38005 10.5115 3.37167 10.479C3.07031 9.3438 3.10976 8.14497 3.4851 7.032C3.86045 5.91903 4.55508 4.94115 5.4824 4.22028C6.40973 3.49941 7.52872 3.06743 8.69989 2.97819C9.87105 2.88896 11.0426 3.14642 12.0684 3.71848L12.0911 3.73256C12.815 4.23656 13.5847 4.92878 14.4018 5.80961ZM11.789 4.19078C10.8569 3.67466 9.79371 3.44387 8.73152 3.5271C7.66934 3.61033 6.65504 4.00391 5.81471 4.6589C4.97439 5.3139 4.3451 6.20143 4.00509 7.21116C3.66507 8.22089 3.62932 9.30829 3.90228 10.3382C3.91402 10.3832 3.9195 10.4086 3.93202 10.4732L3.93476 10.4865C3.95119 10.5714 3.98015 10.6536 4.02085 10.7303C4.07328 10.8402 4.17854 11.0445 4.30415 11.2695C4.4945 11.6125 4.70028 11.9468 4.92085 12.2712C5.51289 13.1376 6.09985 13.7288 6.60659 13.899C7.28198 14.126 9.82506 11.4338 13.8438 6.017C13.1144 5.24652 12.4292 4.63804 11.789 4.19078Z" fill="black"/>
<path d="M11.7886 4.19078C10.8565 3.67478 9.79337 3.44409 8.73126 3.52738C7.66914 3.61067 6.65493 4.00426 5.81467 4.65924C4.97442 5.31421 4.34518 6.20169 4.00517 7.21135C3.66517 8.22102 3.62939 9.30834 3.90228 10.3382C3.91402 10.3832 3.91949 10.4086 3.93202 10.4732L3.93476 10.4865C3.95119 10.5714 3.98015 10.6536 4.02084 10.7299C4.07328 10.8402 4.17854 11.0441 4.30415 11.2695C4.49449 11.6125 4.70027 11.9468 4.92084 12.2712C5.51289 13.1372 6.09984 13.7288 6.60658 13.899C7.28197 14.126 9.82506 11.4338 13.8438 6.017C13.114 5.24652 12.4292 4.63804 11.7886 4.19078Z" fill="#EC1C79"/>
<path d="M10.25 16.0191C9.46058 16.0255 8.67768 15.8755 7.94649 15.5779C7.2153 15.2802 6.55028 14.8407 5.98979 14.2847C5.4293 13.7287 4.98443 13.0673 4.68084 12.3385C4.37725 11.6098 4.22095 10.8281 4.22095 10.0386C4.22095 9.24916 4.37725 8.46751 4.68084 7.73875C4.98443 7.00999 5.4293 6.34855 5.98979 5.79257C6.55028 5.23659 7.2153 4.79709 7.94649 4.4994C8.67768 4.20172 9.46058 4.05174 10.25 4.05813C11.8278 4.07089 13.3366 4.7066 14.4477 5.82678C15.5589 6.94695 16.1823 8.46083 16.1823 10.0386C16.1823 11.6164 15.5589 13.1303 14.4477 14.2505C13.3366 15.3707 11.8278 16.0064 10.25 16.0191ZM10.25 15.4709C11.6905 15.4709 13.0721 14.8987 14.0907 13.8801C15.1093 12.8615 15.6815 11.4799 15.6815 10.0394C15.6815 8.59889 15.1093 7.21737 14.0907 6.19876C13.0721 5.18016 11.6905 4.60791 10.25 4.60791C8.80955 4.60791 7.42807 5.18014 6.40951 6.1987C5.39094 7.21727 4.81871 8.59874 4.81871 10.0392C4.81871 11.4797 5.39094 12.8612 6.40951 13.8797C7.42807 14.8983 8.80955 15.4709 10.25 15.4709Z" fill="black"/>
<path d="M10.2505 15.4705C11.6911 15.4705 13.0727 14.8982 14.0914 13.8796C15.1101 12.8609 15.6824 11.4793 15.6824 10.0386C15.6824 8.598 15.1101 7.21638 14.0914 6.1977C13.0727 5.17903 11.6911 4.60674 10.2505 4.60674C8.80987 4.60674 7.42825 5.17903 6.40957 6.1977C5.39089 7.21638 4.8186 8.598 4.8186 10.0386C4.8186 11.4793 5.39089 12.8609 6.40957 13.8796C7.42825 14.8982 8.80987 15.4705 10.2505 15.4705Z" fill="white"/>
<path fill-rule="evenodd" clip-rule="evenodd" d="M6.18724 11.1513L5.46802 8.98544H6.09802L6.47289 10.2298L6.88767 8.97918H7.40106L7.81584 10.2298L8.19071 8.98544H8.80819L8.08897 11.1513H7.56971L7.13654 9.91322L6.7061 11.1513H6.18724ZM9.04454 11.136V8.98544H10.7741V9.49218H9.63463V9.81813H10.6669V10.2881H9.63463V10.6293H10.7898V11.136H9.04454ZM11.6193 11.136V9.50783H10.9741V8.98544H12.8605V9.50783H12.2153V11.136H11.6193ZM13.1219 11.136V8.98544H13.7179V9.79035H14.4829V8.98544H15.0788V11.136H14.4829V10.319H13.7179V11.136H13.1219Z" fill="black"/>
<path d="M3.52875 8.33861C3.45585 8.30218 3.4004 8.23829 3.37461 8.16098C3.34881 8.08367 3.35478 7.99928 3.39121 7.92637C3.42764 7.85346 3.49153 7.79802 3.56884 7.77222C3.64615 7.74643 3.73054 7.7524 3.80345 7.78883L4.68154 8.22787C4.71963 8.24469 4.7539 8.26908 4.78229 8.29954C4.81068 8.33001 4.83258 8.36592 4.84668 8.4051C4.86077 8.44428 4.86677 8.48592 4.86429 8.52749C4.86182 8.56905 4.85093 8.60968 4.83229 8.64692C4.81364 8.68415 4.78763 8.71721 4.75583 8.74409C4.72403 8.77098 4.68711 8.79112 4.64729 8.80331C4.60747 8.8155 4.5656 8.81947 4.5242 8.815C4.4828 8.81052 4.44274 8.79768 4.40645 8.77726L3.52875 8.33861ZM3.4278 9.79387C3.3538 9.75973 3.2964 9.69759 3.26822 9.62112C3.24004 9.54465 3.24339 9.46013 3.27754 9.38613C3.31168 9.31214 3.37382 9.25473 3.45029 9.22656C3.52675 9.19838 3.61128 9.20173 3.68528 9.23587L4.56336 9.64126C4.60204 9.65683 4.63715 9.68011 4.66656 9.70967C4.69596 9.73923 4.71905 9.77446 4.73441 9.81322C4.74978 9.85198 4.75711 9.89346 4.75595 9.93514C4.75478 9.97682 4.74516 10.0178 4.72766 10.0557C4.71016 10.0935 4.68514 10.1274 4.65414 10.1553C4.62313 10.1832 4.58678 10.2044 4.5473 10.2178C4.50781 10.2312 4.46601 10.2365 4.42445 10.2332C4.38288 10.2299 4.34241 10.2183 4.30549 10.1989L3.4278 9.79426V9.79387Z" fill="black"/>
</g>
<defs>
<clipPath id="clip0_365_17373">
<rect width="18" height="18" fill="white" transform="translate(0.359863 0.5)"/>
</clipPath>
</defs>
</svg>
