<svg width="20" height="16" viewBox="0 0 20 16" fill="none" xmlns="http://www.w3.org/2000/svg">
<path fill-rule="evenodd" clip-rule="evenodd" d="M4.54124 0.736529C2.81631 1.33774 2.81631 1.33774 1.81719 3.37343C0.49596 6.06489 0 8.14292 0 10.9872C0 13.3299 0 13.3299 1.39989 14.1194C2.16969 14.5537 3.30427 15.1186 3.92075 15.3745C5.042 15.8403 5.042 15.8403 5.58755 15.1346C6.27523 14.2443 6.27897 13.7715 5.59955 13.5519C5.30624 13.4572 5.06626 13.2821 5.06626 13.1629C5.06626 13.0438 5.74487 13.1741 6.57414 13.4526C7.48234 13.7576 8.84463 13.959 9.9992 13.959C11.1538 13.959 12.5161 13.7576 13.4243 13.4526C14.2535 13.1741 14.9321 13.0438 14.9321 13.1629C14.9321 13.2821 14.6922 13.4572 14.3989 13.5519C13.7464 13.7628 13.732 14.0524 14.3229 15.0705C14.8468 15.9733 15.0305 15.9543 17.3831 14.7562C20.1544 13.3448 19.9984 13.5712 19.9984 10.9652C19.9984 8.1299 19.503 6.03748 18.2079 3.4041C17.1538 1.26119 16.8443 1.02044 14.3018 0.368747C13.2245 0.0927066 12.9816 0.109535 12.5697 0.488988C11.91 1.09671 7.9551 1.12331 7.46607 0.523459C7.02904 -0.0126067 6.60134 0.0186072 4.54124 0.736529ZM7.94443 7.40438C8.13428 7.65056 8.25427 8.33672 8.21108 8.92897C8.14922 9.77854 7.97776 10.0939 7.39941 10.4218C6.7408 10.7953 6.59147 10.7953 5.93286 10.4218C5.15959 9.98346 4.88628 9.02614 5.18679 7.80744C5.47316 6.64574 7.16849 6.39793 7.94443 7.40438ZM14.6106 7.40438C14.8004 7.65056 14.9204 8.33672 14.8772 8.92897C14.8153 9.77854 14.6439 10.0939 14.0655 10.4218C13.4069 10.7953 13.2576 10.7953 12.599 10.4218C11.8257 9.98346 11.5524 9.02614 11.8529 7.80744C12.1393 6.64574 13.8346 6.39793 14.6106 7.40438Z" fill="#C7C7C7"/>
</svg>
