<svg width="12" height="12" viewBox="0 0 12 12" fill="none" xmlns="http://www.w3.org/2000/svg">
<g clip-path="url(#clip0_122_11427)">
<path d="M3.30473 0.506317C3.27191 0.511004 3.16645 0.527411 3.0727 0.541473C2.43285 0.635223 1.78832 1.0571 1.41332 1.62663C1.16488 2.00397 1.03598 2.39772 1.01488 2.85241L1.00082 3.13835L0.914102 3.19694C0.726602 3.32116 0.562539 3.59069 0.51332 3.85788C0.496914 3.93991 0.492227 4.13913 0.499258 4.34772C0.508633 4.63366 0.518008 4.72507 0.560195 4.83288C0.62582 5.00163 0.754727 5.17741 0.897695 5.28757L1.00785 5.37429V6.00007V6.62819L0.88832 6.71725C0.750039 6.82272 0.609414 7.02429 0.546133 7.20007C0.510977 7.30319 0.503945 7.39694 0.503945 7.75788C0.503945 8.15163 0.510977 8.20319 0.557852 8.32272C0.635195 8.51491 0.743008 8.66725 0.881289 8.77272L1.00082 8.86647L1.01488 9.15007C1.07348 10.3665 2.00863 11.3415 3.24848 11.4844C3.41254 11.5032 4.33363 11.5079 6.4102 11.5032C9.30473 11.4938 9.34223 11.4938 9.5391 11.4446C10.0196 11.3227 10.3711 11.1352 10.7086 10.8165C10.9477 10.5915 11.093 10.3923 11.2407 10.0899C11.3813 9.79694 11.4516 9.55788 11.4868 9.23444C11.5008 9.08913 11.5079 7.90554 11.5008 5.836C11.4938 2.97194 11.4891 2.64382 11.4539 2.50319C11.3274 1.98991 11.1352 1.62663 10.8071 1.2821C10.4461 0.904755 10.0477 0.679754 9.50395 0.546161C9.35395 0.511004 9.07738 0.506317 6.3516 0.50163C4.70863 0.499286 3.33754 0.50163 3.30473 0.506317ZM9.31645 1.53522C9.74066 1.62429 10.1344 1.92897 10.3313 2.32038C10.5071 2.67428 10.5 2.47741 10.5 6.00007C10.5 8.6696 10.493 9.17819 10.4649 9.31647C10.3782 9.736 10.0664 10.1368 9.67973 10.3313C9.32817 10.5071 9.49457 10.5001 6.26254 10.5001C3.7266 10.5001 3.3516 10.4954 3.19457 10.4626C2.7516 10.3712 2.36723 10.0782 2.16566 9.67507C1.99223 9.33054 2.00395 9.59069 2.00395 6.00007C2.00395 2.41179 1.99223 2.6696 2.16566 2.32741C2.36254 1.93366 2.71879 1.65007 3.1477 1.5446C3.30473 1.5071 3.5227 1.50241 6.23441 1.50241C8.70941 1.50007 9.17816 1.5071 9.31645 1.53522Z" fill="white"/>
<path d="M6.0469 2.54538C5.93909 2.59226 5.86643 2.66257 5.80549 2.77742C5.76096 2.8571 5.75393 2.91804 5.7469 3.21335L5.73752 3.5532L5.58284 3.59304C4.74377 3.81101 4.04065 4.53523 3.82034 5.4071L3.79456 5.50788H3.46643C3.22502 5.50788 3.11721 5.51726 3.05159 5.54304C2.65549 5.70945 2.65549 6.2907 3.05159 6.4571C3.11721 6.48288 3.22502 6.49226 3.46643 6.49226H3.79456L3.82034 6.5907C3.89768 6.90242 4.06877 7.25867 4.25627 7.50476C4.5844 7.93367 5.09065 8.28054 5.58284 8.4071L5.73752 8.44695L5.7469 8.78679C5.75627 9.15476 5.78206 9.24851 5.91096 9.36804C6.09846 9.54382 6.43596 9.52742 6.61409 9.33757C6.72893 9.2157 6.75002 9.12429 6.75002 8.77273V8.44929L6.94456 8.39538C7.74846 8.17507 8.44221 7.48132 8.65081 6.68679L8.70237 6.49226H9.03284C9.30471 6.49226 9.37971 6.48288 9.45706 6.44773C9.84143 6.2696 9.84612 5.74929 9.46409 5.55242C9.38909 5.51492 9.32581 5.50788 9.03987 5.50788H8.70237L8.65081 5.31335C8.58987 5.08601 8.42112 4.73445 8.27346 4.53523C7.95471 4.10163 7.54456 3.80398 7.03362 3.63054C6.92346 3.59304 6.81565 3.56257 6.79221 3.56257C6.75237 3.56257 6.75002 3.53445 6.75002 3.23445C6.75002 2.87351 6.72893 2.78445 6.61409 2.66492C6.47112 2.51492 6.2344 2.46335 6.0469 2.54538ZM6.69143 4.57038C7.18596 4.72273 7.56565 5.12117 7.70159 5.62742C7.75315 5.82429 7.75315 6.17585 7.70159 6.37273C7.49299 7.14851 6.7219 7.62898 5.94143 7.46492C5.39534 7.35007 4.9219 6.8907 4.79534 6.35163C4.77424 6.26726 4.75784 6.11023 4.75784 6.00007C4.75784 5.58054 4.89377 5.25476 5.19143 4.95476C5.50549 4.63601 5.86877 4.4907 6.30471 4.50945C6.44065 4.51648 6.59065 4.53992 6.69143 4.57038Z" fill="white"/>
<path d="M6.00469 5.29228C5.85 5.34853 5.72813 5.44463 5.63203 5.5876C5.53125 5.73525 5.50078 5.85947 5.5125 6.05869C5.53125 6.33057 5.67891 6.55322 5.925 6.67275C6.10313 6.76182 6.37266 6.7665 6.55078 6.68447C7.02657 6.4665 7.14375 5.87119 6.78516 5.48682C6.59063 5.27822 6.26953 5.19853 6.00469 5.29228Z" fill="white"/>
</g>
<defs>
<clipPath id="clip0_122_11427">
<rect width="12" height="12" fill="white"/>
</clipPath>
</defs>
</svg>
