<svg width="18" height="20" viewBox="0 0 18 20" fill="none" xmlns="http://www.w3.org/2000/svg">
<path fill-rule="evenodd" clip-rule="evenodd" d="M8.22989 0.927621C6.73874 1.09653 5.53166 1.50231 4.35472 2.23028C3.66292 2.65822 3.53342 2.75362 3.06869 3.17813C1.45185 4.65484 0.525808 6.35707 0.109264 8.61806C-0.0273061 9.35911 -0.037608 10.7198 0.0882748 11.3867C0.385435 12.961 0.77974 13.9888 1.51222 15.0982C2.20677 16.1501 3.02618 16.9824 4.03739 17.6631C5.93983 18.9437 8.22926 19.4427 10.4214 19.0546C12.3622 18.711 13.9763 17.8659 15.3363 16.4814C16.6799 15.1136 17.4735 13.5454 17.8403 11.5337C17.9733 10.8042 17.9852 9.34515 17.8636 8.66706C17.4632 6.43479 16.5207 4.6817 14.9347 3.21929C13.53 1.92412 11.6719 1.12328 9.56064 0.903218C8.97825 0.842553 8.98148 0.842455 8.22989 0.927621ZM10.1707 2.68977C13.6484 3.26388 16.2428 6.3066 16.291 9.86761C16.2979 10.3739 16.2191 11.3575 16.1497 11.6317C16.1259 11.726 16.0706 11.9439 16.027 12.116C15.9833 12.288 15.8626 12.6408 15.7586 12.9C15.1816 14.3393 14.1744 15.5386 12.8031 16.4196C12.4724 16.6321 11.6805 17.0147 11.4963 17.0511C11.3449 17.0811 11.3449 17.0811 11.323 16.0837C11.2995 15.0153 11.2516 14.7461 11.0179 14.3692C10.9539 14.2661 10.9016 14.1519 10.9016 14.1156C10.9016 14.0713 11.0428 14.0218 11.3284 13.9658C12.3505 13.7656 13.2267 13.2701 13.8043 12.5657C14.1013 12.2034 14.4058 11.5255 14.5209 10.9701C14.6578 10.3099 14.6683 9.15919 14.5417 8.69156C14.415 8.22311 14.2808 7.9215 14.0412 7.56687C13.8391 7.26752 13.8293 7.23753 13.8576 7.00335C13.9395 6.32723 13.9413 6.1001 13.868 5.67795C13.7197 4.82336 13.6638 4.72198 13.3412 4.72315C12.8845 4.72477 11.987 5.06288 11.3708 5.46543C11.1378 5.61763 11.1378 5.61763 10.7669 5.53859C9.72118 5.31558 8.30691 5.3025 7.32719 5.50669C6.80965 5.61454 6.80965 5.61454 6.5807 5.46504C5.75917 4.92842 4.60393 4.57639 4.34466 4.78367C4.23326 4.87271 4.07055 5.42324 4.02646 5.86019C3.99088 6.21246 4.00224 6.41793 4.08822 6.9765C4.11956 7.17991 4.10651 7.22156 3.92002 7.51366C3.23636 8.5843 3.10821 9.99629 3.56529 11.4216C4.0177 12.8324 5.01215 13.6507 6.68011 13.9848C6.83382 14.0157 6.95281 14.0555 6.94458 14.0735C6.93635 14.0916 6.87074 14.2201 6.79877 14.3593C6.63587 14.6744 6.47894 14.7388 5.86743 14.7414C5.46417 14.7431 5.41247 14.7319 5.19628 14.5959C5.03646 14.4954 4.87245 14.3203 4.67985 14.0442C4.5208 13.8164 4.28617 13.5543 4.14243 13.4438C3.70542 13.1079 3.21802 13.0251 2.95489 13.242C2.78742 13.3801 2.86198 13.544 3.22389 13.8335C3.6051 14.1384 3.77128 14.3636 4.03994 14.9393C4.36492 15.6357 4.7521 15.9433 5.51924 16.1147C5.82204 16.1823 5.94883 16.188 6.21494 16.1458C6.39392 16.1174 6.55129 16.1054 6.56462 16.119C6.57796 16.1325 6.59784 16.3523 6.60882 16.6073C6.63192 17.1456 6.63033 17.1469 6.18399 16.9589C4.86706 16.4041 3.69199 15.4233 2.87238 14.1947C2.57801 13.7534 2.16575 12.8819 1.99934 12.349C1.74112 11.5222 1.64754 10.803 1.6796 9.89211C1.71902 8.77114 1.79686 8.32395 2.10168 7.46652C2.53334 6.25225 3.35786 5.08121 4.37811 4.23313C5.33256 3.43984 6.59192 2.86657 7.77257 2.68796C8.35933 2.59922 9.62793 2.60015 10.1707 2.68977Z" fill="#C7C7C7"/>
</svg>
