<svg width="16" height="16" viewBox="0 0 16 16" fill="none" xmlns="http://www.w3.org/2000/svg">
<path d="M7.44187 1.98999L2.625 4.47124V10.0175L7.4375 13.045L12.25 10.0175V4.47124L7.44187 1.98999ZM6.66313 10.6987L4.14625 9.17187V6.34937L6.66313 7.84937V10.6987ZM4.99 5.04999L7.45062 3.74999L10.0131 5.05062L7.45062 6.48186L4.99 5.04999ZM8.16438 10.7019V7.85062L10.7269 6.35062V9.17312L8.16438 10.7019Z" fill="white"/>
<path d="M11.3862 1.68744C11.1479 1.70751 10.9109 1.74047 10.6762 1.78619C10.4575 1.82932 10.2556 1.87869 10.075 1.92494C9.71308 2.01869 9.42745 2.09557 9.22933 2.15182C9.15197 2.17125 9.07317 2.18442 8.9937 2.19119C8.93745 2.20307 8.90183 2.19432 8.89183 2.17244C8.88183 2.15057 8.89183 2.11744 8.92745 2.07182C8.97806 2.00881 9.03526 1.9514 9.09808 1.90057C9.34071 1.71375 9.60088 1.5509 9.87495 1.41432C10.0739 1.31358 10.2782 1.22366 10.4868 1.14494C10.7391 1.04809 10.9981 0.96976 11.2618 0.910565L11.3712 0.88869L11.4837 0.86619C11.5587 0.854315 11.6375 0.840565 11.7175 0.834315C11.7975 0.828065 11.8781 0.816815 11.9618 0.80994C12.0456 0.803065 12.1325 0.80994 12.22 0.80994C12.4041 0.811041 12.5879 0.827557 12.7693 0.859315C12.9698 0.894974 13.1657 0.952397 13.3537 1.03057C13.5577 1.11931 13.7488 1.23514 13.9218 1.37494L13.9887 1.42994C14.0106 1.44869 14.0331 1.46744 14.0512 1.48744L14.1137 1.54994C14.1358 1.56949 14.1566 1.59036 14.1762 1.61244C14.2175 1.65432 14.2568 1.69807 14.2943 1.74432C14.3136 1.76671 14.3318 1.79007 14.3487 1.81432L14.4031 1.88557L14.4531 1.95932C14.47 1.98494 14.4856 2.01057 14.5006 2.03619L14.5243 2.07369C14.5308 2.08735 14.5384 2.10052 14.5468 2.11307L14.5893 2.19307L14.6287 2.27307L14.6493 2.31432L14.6662 2.35557L14.7025 2.43744L14.7343 2.52119L14.75 2.56369L14.7637 2.60619L14.7925 2.69182L14.8168 2.77682C14.819 2.79204 14.8229 2.80694 14.8287 2.82119L14.8387 2.86432L14.8593 2.95119L14.8781 3.03807L14.8868 3.08244V3.12494L14.9 3.21432C14.9331 3.44884 14.9475 3.68563 14.9431 3.92244C14.9381 4.15965 14.9187 4.39634 14.885 4.63119C14.8128 5.10668 14.6984 5.57479 14.5431 6.02994C14.3829 6.49703 14.1925 6.9532 13.9731 7.39557C13.7457 7.85185 13.4937 8.29542 13.2181 8.72432C12.6421 9.61834 11.9836 10.4564 11.2512 11.2274C10.5222 12.0017 9.72177 12.7054 8.86058 13.3293C8.44672 13.6269 8.01691 13.9017 7.57308 14.1524C7.1432 14.3962 6.69764 14.6113 6.23933 14.7962C5.79308 14.9761 5.33138 15.115 4.85995 15.2112C4.62711 15.2574 4.39168 15.2893 4.15495 15.3068C3.91782 15.3256 3.67958 15.3256 3.44245 15.3068L3.27183 15.2862L3.18745 15.2693L3.09808 15.2499L3.00933 15.2331L2.92183 15.2124C2.8637 15.1956 2.80558 15.1818 2.7512 15.1631C2.63491 15.1267 2.52095 15.0833 2.40995 15.0331C2.35495 15.0074 2.30183 14.9818 2.24933 14.9531L2.17058 14.9087L2.0937 14.8606C1.99482 14.7975 1.9008 14.7271 1.81245 14.6499C1.7662 14.6124 1.72495 14.5712 1.68745 14.5318C1.64995 14.4924 1.60683 14.4468 1.56933 14.4068C1.42475 14.2397 1.30363 14.0536 1.20933 13.8537C1.12191 13.6705 1.05545 13.478 1.0112 13.2799C0.970608 13.1003 0.944896 12.9176 0.934326 12.7337V12.2299C0.937412 12.1517 0.944714 12.0737 0.956201 11.9962C0.958823 11.9578 0.964043 11.9195 0.971826 11.8818C0.976826 11.8437 0.981826 11.8081 0.988701 11.7724C1.03418 11.5058 1.09809 11.2427 1.17995 10.9849C1.25683 10.7512 1.3387 10.5443 1.41933 10.3599C1.5393 10.0789 1.68734 9.81064 1.8612 9.55931C1.90693 9.49089 1.96041 9.42797 2.02058 9.37181C2.0637 9.33369 2.0962 9.32056 2.11745 9.33056C2.1387 9.34056 2.14995 9.37494 2.15183 9.43119C2.14894 9.51106 2.13911 9.59052 2.12245 9.66869C2.08683 9.86994 2.01683 10.1587 1.94183 10.5224C1.90558 10.7049 1.86808 10.9081 1.83558 11.1306C1.80159 11.3671 1.78073 11.6054 1.77308 11.8443V12.3293L1.78183 12.4299C1.78373 12.4632 1.78833 12.4962 1.79558 12.5287C1.80058 12.5631 1.80558 12.5956 1.81058 12.6281C1.83307 12.7607 1.8663 12.8914 1.90995 13.0187C1.95388 13.1456 2.01108 13.2675 2.08058 13.3824C2.14762 13.4951 2.22915 13.5985 2.32308 13.6899L2.3962 13.7568C2.4237 13.7768 2.44745 13.7974 2.47495 13.8193C2.52906 13.8594 2.5861 13.8953 2.64558 13.9268C2.91769 14.0615 3.21696 14.1322 3.52058 14.1337C3.69186 14.1373 3.86317 14.1282 4.03308 14.1062C4.21834 14.0819 4.402 14.0466 4.58308 14.0006C4.97498 13.8986 5.35759 13.7637 5.72683 13.5974C6.12539 13.4187 6.51258 13.2156 6.8862 12.9893C7.28146 12.7504 7.66444 12.4917 8.0337 12.2143C8.81695 11.6251 9.54874 10.9705 10.2212 10.2574C10.8957 9.54767 11.5092 8.78225 12.055 7.96932C12.3135 7.58393 12.5514 7.18503 12.7675 6.77432C12.9731 6.38721 13.1549 5.98793 13.3118 5.57869C13.4588 5.20102 13.5732 4.81148 13.6537 4.41432C13.6907 4.23039 13.7167 4.04444 13.7318 3.85744C13.745 3.68352 13.745 3.50886 13.7318 3.33494C13.7145 3.03504 13.629 2.74305 13.4818 2.48119C13.4738 2.46644 13.4649 2.45224 13.455 2.43869C13.4462 2.42494 13.4375 2.40932 13.4275 2.39619C13.4085 2.36793 13.3876 2.34099 13.365 2.31557C13.2514 2.16046 13.1066 2.03081 12.94 1.93494C12.823 1.87134 12.6993 1.82102 12.5712 1.78494C12.1847 1.68469 11.7839 1.65171 11.3862 1.68744Z" fill="white"/>
</svg>
