<svg width="26" height="24" viewBox="0 0 26 24" fill="none" xmlns="http://www.w3.org/2000/svg">
<path d="M23.5495 1L14.28 7.87695L16.0016 3.81972L23.5495 1Z" fill="#E17726" stroke="#E17726" stroke-width="0.712817" stroke-linecap="round" stroke-linejoin="round"/>
<path d="M2.17249 1L11.3576 7.94204L9.72045 3.81972L2.17249 1Z" fill="#E27625" stroke="#E27625" stroke-width="0.712817" stroke-linecap="round" stroke-linejoin="round"/>
<path d="M20.2173 16.9434L17.7515 20.7219L23.0279 22.173L24.5358 17.0268L20.2173 16.9434Z" fill="#E27625" stroke="#E27625" stroke-width="0.712817" stroke-linecap="round" stroke-linejoin="round"/>
<path d="M1.19519 17.0268L2.69397 22.173L7.97039 20.7219L5.51368 16.9434L1.19519 17.0268Z" fill="#E27625" stroke="#E27625" stroke-width="0.712817" stroke-linecap="round" stroke-linejoin="round"/>
<path d="M7.68178 10.5583L6.21143 12.7831L11.442 13.0159L11.2651 7.38477L7.68178 10.5583Z" fill="#E27625" stroke="#E27625" stroke-width="0.712817" stroke-linecap="round" stroke-linejoin="round"/>
<path d="M18.0403 10.557L14.401 7.31836L14.28 13.0146L19.5106 12.7818L18.0403 10.557Z" fill="#E27625" stroke="#E27625" stroke-width="0.712817" stroke-linecap="round" stroke-linejoin="round"/>
<path d="M7.97046 20.722L11.1257 19.1857L8.40772 17.0645L7.97046 20.722Z" fill="#E27625" stroke="#E27625" stroke-width="0.712817" stroke-linecap="round" stroke-linejoin="round"/>
<path d="M14.5961 19.1857L17.7513 20.722L17.314 17.0645L14.5961 19.1857Z" fill="#E27625" stroke="#E27625" stroke-width="0.712817" stroke-linecap="round" stroke-linejoin="round"/>
<path d="M17.7513 20.7219L14.5961 19.1855L14.8472 21.2426L14.8197 22.1079L17.7513 20.7219Z" fill="#D5BFB2" stroke="#D5BFB2" stroke-width="0.712817" stroke-linecap="round" stroke-linejoin="round"/>
<path d="M7.97046 20.7219L10.902 22.1079L10.8837 21.2426L11.1257 19.1855L7.97046 20.7219Z" fill="#D5BFB2" stroke="#D5BFB2" stroke-width="0.712817" stroke-linecap="round" stroke-linejoin="round"/>
<path d="M10.958 15.7048L8.3335 14.933L10.1852 14.0859L10.958 15.7048Z" fill="#233447" stroke="#233447" stroke-width="0.712817" stroke-linecap="round" stroke-linejoin="round"/>
<path d="M14.7642 15.7048L15.5369 14.0859L17.3978 14.933L14.7642 15.7048Z" fill="#233447" stroke="#233447" stroke-width="0.712817" stroke-linecap="round" stroke-linejoin="round"/>
<path d="M7.97038 20.7219L8.42597 16.9434L5.51367 17.0268L7.97038 20.7219Z" fill="#CC6228" stroke="#CC6228" stroke-width="0.712817" stroke-linecap="round" stroke-linejoin="round"/>
<path d="M17.2958 16.9434L17.7514 20.7219L20.2172 17.0268L17.2958 16.9434Z" fill="#CC6228" stroke="#CC6228" stroke-width="0.712817" stroke-linecap="round" stroke-linejoin="round"/>
<path d="M19.5106 12.7832L14.28 13.016L14.764 15.7047L15.5368 14.0858L17.3977 14.9328L19.5106 12.7832Z" fill="#CC6228" stroke="#CC6228" stroke-width="0.712817" stroke-linecap="round" stroke-linejoin="round"/>
<path d="M8.33355 14.9328L10.1852 14.0858L10.958 15.7047L11.442 13.016L6.21143 12.7832L8.33355 14.9328Z" fill="#CC6228" stroke="#CC6228" stroke-width="0.712817" stroke-linecap="round" stroke-linejoin="round"/>
<path d="M6.21143 12.7832L8.4078 17.0641L8.33355 14.9328L6.21143 12.7832Z" fill="#E27525" stroke="#E27525" stroke-width="0.712817" stroke-linecap="round" stroke-linejoin="round"/>
<path d="M17.3976 14.9328L17.3142 17.0641L19.5106 12.7832L17.3976 14.9328Z" fill="#E27525" stroke="#E27525" stroke-width="0.712817" stroke-linecap="round" stroke-linejoin="round"/>
<path d="M11.442 13.0137L10.958 15.7023L11.5722 18.8759L11.7024 14.6976L11.442 13.0137Z" fill="#E27525" stroke="#E27525" stroke-width="0.712817" stroke-linecap="round" stroke-linejoin="round"/>
<path d="M14.2801 13.0137L14.0289 14.6885L14.1499 18.8759L14.7641 15.7023L14.2801 13.0137Z" fill="#E27525" stroke="#E27525" stroke-width="0.712817" stroke-linecap="round" stroke-linejoin="round"/>
<path d="M14.764 15.7035L14.1498 18.877L14.5962 19.1841L17.3142 17.0629L17.3976 14.9316L14.764 15.7035Z" fill="#F5841F" stroke="#F5841F" stroke-width="0.712817" stroke-linecap="round" stroke-linejoin="round"/>
<path d="M8.3335 14.9316L8.40775 17.0629L11.1257 19.1841L11.5721 18.877L10.958 15.7035L8.3335 14.9316Z" fill="#F5841F" stroke="#F5841F" stroke-width="0.712817" stroke-linecap="round" stroke-linejoin="round"/>
<path d="M14.8199 22.1067L14.8474 21.2414L14.6155 21.037H11.1064L10.8837 21.2414L10.902 22.1067L7.97046 20.7207L8.99439 21.5576L11.0789 23.0005H14.643L16.7275 21.5576L17.7515 20.7207L14.8199 22.1067Z" fill="#C0AC9D" stroke="#C0AC9D" stroke-width="0.712817" stroke-linecap="round" stroke-linejoin="round"/>
<path d="M14.5962 19.184L14.1498 18.877H11.5721L11.1257 19.184L10.8837 21.2411L11.1064 21.0367H14.6155L14.8474 21.2411L14.5962 19.184Z" fill="#161616" stroke="#161616" stroke-width="0.712817" stroke-linecap="round" stroke-linejoin="round"/>
<path d="M23.9398 8.32429L24.7217 4.52739L23.5493 1L14.5961 7.64503L18.04 10.5573L22.9067 11.9819L23.9774 10.7251L23.5117 10.3905L24.2561 9.71032L23.6886 9.26389L24.433 8.69647L23.9398 8.32429Z" fill="#763E1A" stroke="#763E1A" stroke-width="0.712817" stroke-linecap="round" stroke-linejoin="round"/>
<path d="M1 4.52739L1.7911 8.32429L1.28876 8.69647L2.0331 9.26389L1.46567 9.71032L2.21002 10.3905L1.74435 10.7251L2.81503 11.9819L7.6817 10.5573L11.1257 7.64503L2.17244 1L1 4.52739Z" fill="#763E1A" stroke="#763E1A" stroke-width="0.712817" stroke-linecap="round" stroke-linejoin="round"/>
<path d="M22.9069 11.9812L18.0402 10.5566L19.5106 12.7814L17.3142 17.0623L20.2173 17.0248H24.5358L22.9069 11.9812Z" fill="#F5841F" stroke="#F5841F" stroke-width="0.712817" stroke-linecap="round" stroke-linejoin="round"/>
<path d="M7.68163 10.5566L2.81497 11.9812L1.19519 17.0248H5.51368L8.40765 17.0623L6.21128 12.7814L7.68163 10.5566Z" fill="#F5841F" stroke="#F5841F" stroke-width="0.712817" stroke-linecap="round" stroke-linejoin="round"/>
<path d="M14.2802 13.0136L14.5964 7.64367L16.0017 3.81836H9.72058L11.1259 7.64367L11.4421 13.0136L11.5631 14.7067L11.5723 18.8758H14.15L14.1592 14.7067L14.2802 13.0136Z" fill="#F5841F" stroke="#F5841F" stroke-width="0.712817" stroke-linecap="round" stroke-linejoin="round"/>
</svg>
