<svg width="14" height="14" viewBox="0 0 14 14" fill="none" xmlns="http://www.w3.org/2000/svg">
<path d="M6.68008 0.87228C5.74492 1.02267 5.00391 1.69533 4.76875 2.61134C4.69766 2.89025 4.70312 3.41525 4.77969 3.70509C4.86172 4.01134 5.05312 4.38048 5.24727 4.61564L5.41406 4.81251L5.32656 4.85353C5.27734 4.87814 5.00937 4.99025 4.7332 5.10783C4.18359 5.33751 4.13164 5.37579 4.10977 5.58087C4.09883 5.67658 4.10977 5.72033 4.16172 5.79689C4.21914 5.88165 4.30937 5.92814 4.92188 6.19611C5.56719 6.47775 5.61914 6.50783 5.61094 6.56525C5.6082 6.60079 5.55078 6.88243 5.48242 7.19142C4.98477 9.47736 4.77969 10.4125 4.76602 10.4645C4.75508 10.5164 4.7332 10.5274 4.65117 10.5274C4.48164 10.5274 4.34766 10.5793 3.97305 10.7899C3.74609 10.9184 3.58203 11.0305 3.53008 11.0934C3.48359 11.1481 3.35234 11.427 3.2293 11.7332C3.05156 12.1707 3.00781 12.302 3.00781 12.4168C3.00781 12.6383 3.05977 12.7668 3.21289 12.9254C3.45078 13.1688 3.17461 13.1524 7 13.1524C10.7352 13.1524 10.5355 13.1633 10.7516 12.9664C10.9047 12.8297 10.9922 12.6356 10.9922 12.4305C10.9922 12.2938 10.9621 12.1981 10.7707 11.7305C10.6477 11.4297 10.5109 11.1426 10.4672 11.0906C10.3797 10.984 9.73438 10.6067 9.55664 10.5574C9.49648 10.541 9.40352 10.5274 9.34883 10.5274C9.26133 10.5274 9.24492 10.5164 9.22852 10.4508C9.18203 10.2594 8.39453 6.63361 8.38906 6.57072C8.38086 6.50509 8.41367 6.48595 9.07539 6.19611C9.85469 5.85704 9.88477 5.83244 9.88477 5.60548C9.88477 5.384 9.83828 5.34845 9.2668 5.10783C8.99062 4.99025 8.72266 4.87814 8.67344 4.85353L8.58594 4.81251L8.75273 4.61564C8.94688 4.38048 9.13555 4.01408 9.22031 3.70509C9.30781 3.37423 9.30234 2.86017 9.20391 2.53478C9.04258 1.99337 8.73359 1.55314 8.3043 1.26056C8.11562 1.13205 7.75742 0.970717 7.53594 0.918764C7.31445 0.864077 6.88242 0.842202 6.68008 0.87228ZM7.44023 1.62423C8.10195 1.83205 8.58594 2.47462 8.58594 3.14454C8.58594 3.62306 8.31797 4.12892 7.91875 4.41603L7.74375 4.53908H7H6.25625L6.08125 4.41603C5.76133 4.18634 5.53711 3.84454 5.45508 3.45626C5.40039 3.19923 5.40313 3.0297 5.46875 2.77814C5.54531 2.47462 5.66836 2.25861 5.89258 2.03712C6.22344 1.70353 6.61992 1.54767 7.06836 1.56955C7.20508 1.57775 7.37187 1.60236 7.44023 1.62423ZM8.17578 5.41681C8.39453 5.50704 8.5832 5.59181 8.59414 5.60275C8.60508 5.61642 8.44375 5.70119 8.23047 5.79142L7.84766 5.96095H7H6.15234L5.76953 5.79415C5.55898 5.70119 5.39219 5.61642 5.40039 5.60822C5.40859 5.60001 5.5918 5.51525 5.80508 5.42228L6.19336 5.25548L6.98633 5.25275L7.78203 5.25001L8.17578 5.41681ZM7.69453 6.74572C7.70273 6.78947 7.88867 7.63986 8.10742 8.6379C8.32344 9.63595 8.4957 10.4617 8.49023 10.4727C8.48203 10.4836 7.80664 10.4918 6.98359 10.4945H5.49062L5.5043 10.4207C5.5125 10.3824 5.69844 9.52931 5.91719 8.52306C6.13594 7.51954 6.31641 6.69376 6.31641 6.68556C6.31641 6.67736 6.62266 6.67189 6.99727 6.67189H7.67812L7.69453 6.74572ZM9.65234 11.3942L9.93125 11.5527L10.1062 11.9766C10.202 12.209 10.2812 12.4086 10.2812 12.4195C10.2812 12.4332 8.80469 12.4414 7 12.4414C5.19531 12.4414 3.71875 12.4332 3.71875 12.4195C3.71875 12.4086 3.79805 12.209 3.89375 11.9766L4.06875 11.5527L4.33945 11.3969L4.60742 11.2438L6.98906 11.241L9.3707 11.2383L9.65234 11.3942Z" fill="white"/>
</svg>
