<svg width="23" height="19" viewBox="0 0 23 19" fill="none" xmlns="http://www.w3.org/2000/svg">
<path fill-rule="evenodd" clip-rule="evenodd" d="M14.2063 0.111837C12.8426 0.484864 11.7676 1.37372 11.1803 2.61391C10.8487 3.3141 10.7639 3.71169 10.7615 4.57799C10.7603 4.99152 10.7756 5.40424 10.7955 5.49517C10.8317 5.66048 10.8317 5.66048 10.5247 5.62955C8.63322 5.43923 7.24076 5.03478 5.62425 4.20617C4.35371 3.5549 3.51414 2.92147 2.34593 1.73277C1.86228 1.24059 1.45864 0.845962 1.44899 0.855786C1.43934 0.865561 1.35627 1.0417 1.26433 1.24711C0.733211 2.43396 0.736116 3.91579 1.27192 5.11863C1.49336 5.61577 1.92082 6.20363 2.35292 6.60533C2.73292 6.95856 2.73292 6.95856 2.56057 6.95796C2.32549 6.95715 1.6853 6.78833 1.31461 6.62944C1.14679 6.55751 0.959083 6.48668 0.897531 6.4721C0.788509 6.44623 0.786343 6.4532 0.814558 6.73981C0.944113 8.05704 1.34967 8.95106 2.21243 9.82173C2.69047 10.3041 3.19919 10.6362 3.7866 10.8493C3.99248 10.924 4.18043 11.0024 4.20427 11.0236C4.28768 11.0977 3.85943 11.1443 3.13917 11.1394C2.73972 11.1366 2.41285 11.1392 2.41285 11.145C2.41285 11.2344 2.75725 11.9562 2.93191 12.2328C3.24223 12.7241 3.92172 13.3903 4.42457 13.6961C4.92728 14.0018 5.71318 14.2765 6.19216 14.3138C6.38854 14.3292 6.54827 14.3553 6.54724 14.372C6.54399 14.4232 6.13716 14.7113 5.68098 14.9856C4.15857 15.9009 2.43259 16.3434 0.681654 16.2671C0.306727 16.2508 0 16.2539 0 16.2739C0 16.3742 1.3019 17.0744 2.05373 17.3784C3.82515 18.0946 5.35933 18.3684 7.33703 18.3215C8.83388 18.286 10.0042 18.0854 11.2518 17.6506C12.0594 17.3692 13.4137 16.6952 14.0688 16.2488C16.4233 14.6443 18.2162 12.2401 19.1652 9.41501C19.6009 8.11784 19.8282 6.82924 19.8797 5.36455C19.9085 4.54711 19.9085 4.54711 20.2581 4.25614C20.8922 3.72838 22.1877 2.25988 22.0988 2.16945C22.0854 2.15567 21.9738 2.1883 21.8509 2.24188C21.3322 2.46819 19.7756 2.89551 19.7106 2.82944C19.7023 2.82092 19.8573 2.67872 20.0551 2.51346C20.5303 2.11647 20.9917 1.5242 21.2554 0.972677C21.4407 0.585164 21.5159 0.34246 21.4507 0.34246C21.4403 0.34246 21.1948 0.464564 20.905 0.613785C20.3799 0.884157 19.213 1.31122 18.831 1.37277C18.6376 1.40395 18.6132 1.39147 18.1908 1.04581C17.9493 0.848117 17.5522 0.585514 17.3085 0.462208C16.6448 0.126523 16.2602 0.0362492 15.3881 0.0115377C14.723 -0.0073091 14.6053 0.00266566 14.2063 0.111837Z" fill="#C7C7C7"/>
</svg>
