<svg width="16" height="16" viewBox="0 0 16 16" fill="none" xmlns="http://www.w3.org/2000/svg">
<g id="Arhives_alt_light">
<path id="Rectangle 1" d="M12 1.66663V1.66663C12.9205 1.66663 13.6667 2.41282 13.6667 3.33329V10.12C13.6667 11.1281 13.6667 11.6321 13.4705 12.0171C13.2979 12.3558 13.0226 12.6312 12.6839 12.8038C12.2988 13 11.7948 13 10.7867 13H5.21337C4.20528 13 3.70123 13 3.31619 12.8038C2.9775 12.6312 2.70213 12.3558 2.52956 12.0171C2.33337 11.6321 2.33337 11.1281 2.33337 10.12V3.33329C2.33337 2.41282 3.07957 1.66663 4.00004 1.66663V1.66663" stroke="white"/>
<path id="Rectangle 2" d="M13.6667 8.33337H12.0541C11.735 8.33337 11.5754 8.33337 11.436 8.3748C11.2194 8.43914 11.031 8.57493 10.9015 8.76003C10.8181 8.87918 10.7676 9.03058 10.6667 9.33337V9.33337C10.5658 9.63617 10.5153 9.78756 10.4319 9.90671C10.3024 10.0918 10.114 10.2276 9.89744 10.292C9.75804 10.3334 9.59845 10.3334 9.27928 10.3334H6.7208C6.40163 10.3334 6.24204 10.3334 6.10264 10.292C5.88607 10.2276 5.69768 10.0918 5.56815 9.90671C5.48477 9.78756 5.43431 9.63617 5.33337 9.33337V9.33337C5.23244 9.03058 5.18198 8.87918 5.0986 8.76003C4.96907 8.57493 4.78067 8.43914 4.56411 8.3748C4.42471 8.33337 4.26512 8.33337 3.94595 8.33337H2.33337M10.7778 9.00004H5.22226" stroke="white"/>
<path id="Rectangle 3" d="M13.6667 5H12.0541C11.735 5 11.5754 5 11.436 5.04142C11.2194 5.10577 11.031 5.24156 10.9015 5.42666C10.8181 5.54581 10.7676 5.69721 10.6667 6V6C10.5658 6.30279 10.5153 6.45419 10.4319 6.57334C10.3024 6.75844 10.114 6.89423 9.89744 6.95858C9.75804 7 9.59845 7 9.27928 7H6.7208C6.40163 7 6.24204 7 6.10264 6.95858C5.88607 6.89423 5.69768 6.75844 5.56815 6.57334C5.48477 6.45419 5.43431 6.30279 5.33337 6V6C5.23244 5.69721 5.18198 5.54581 5.0986 5.42666C4.96907 5.24156 4.78067 5.10577 4.56411 5.04142C4.42471 5 4.26512 5 3.94595 5H2.33337M10.7778 5.66667H5.22226" stroke="white"/>
<path id="Rectangle 4" d="M12.3333 1.66663H12.0541C11.7349 1.66663 11.5753 1.66663 11.4359 1.70805C11.2193 1.7724 11.0309 1.90818 10.9014 2.09329C10.818 2.21244 10.7676 2.36383 10.6666 2.66663V2.66663C10.5657 2.96942 10.5152 3.12082 10.4319 3.23997C10.3023 3.42507 10.1139 3.56086 9.89736 3.6252C9.75796 3.66663 9.59837 3.66663 9.2792 3.66663H6.72072C6.40155 3.66663 6.24196 3.66663 6.10256 3.6252C5.88599 3.56086 5.6976 3.42507 5.56807 3.23997C5.48469 3.12082 5.43422 2.96942 5.33329 2.66663V2.66663C5.23236 2.36383 5.1819 2.21244 5.09852 2.09329C4.96899 1.90818 4.78059 1.7724 4.56403 1.70805C4.42463 1.66663 4.26504 1.66663 3.94587 1.66663H3.66663M10.7777 2.33329H5.22218" stroke="white"/>
</g>
</svg>
