<svg width="26" height="24" viewBox="0 0 26 24" fill="none" xmlns="http://www.w3.org/2000/svg">
<path fill-rule="evenodd" clip-rule="evenodd" d="M12.6176 0.0703125C19.2071 0.0703125 24.5477 5.4109 24.5477 12.0004C24.5477 18.5899 19.2071 23.9305 12.6176 23.9305C6.02808 23.9305 0.6875 18.5899 0.6875 12.0004C0.6875 5.4109 6.02808 0.0703125 12.6176 0.0703125Z" fill="url(#paint0_radial_1233_9841)"/>
<path d="M8.26967 9.28345C10.6697 6.93937 14.5656 6.93937 16.9656 9.28345L17.2545 9.56772C17.3757 9.68423 17.3757 9.87529 17.2545 9.9918L16.2666 10.9565C16.206 11.017 16.1081 11.017 16.0475 10.9565L15.6514 10.5697C13.9738 8.93393 11.2615 8.93393 9.58385 10.5697L9.15977 10.9844C9.09919 11.045 9.00132 11.045 8.94074 10.9844L7.95278 10.0198C7.83161 9.90325 7.83161 9.71219 7.95278 9.59568L8.26967 9.28345ZM19.0114 11.278L19.8922 12.1355C20.0134 12.252 20.0134 12.4431 19.8922 12.5596L15.9264 16.4322C15.8052 16.5487 15.6095 16.5487 15.493 16.4322L12.6782 13.6827C12.6503 13.6547 12.599 13.6547 12.571 13.6827L9.75628 16.4322C9.63511 16.5487 9.43938 16.5487 9.32288 16.4322L5.34307 12.5596C5.22191 12.4431 5.22191 12.252 5.34307 12.1355L6.22385 11.278C6.34501 11.1615 6.54074 11.1615 6.65725 11.278L9.472 14.0275C9.49996 14.0555 9.55123 14.0555 9.57919 14.0275L12.3939 11.278C12.5151 11.1615 12.7108 11.1615 12.8273 11.278L15.6421 14.0275C15.6701 14.0555 15.7213 14.0555 15.7493 14.0275L18.564 11.278C18.6945 11.1615 18.8903 11.1615 19.0114 11.278Z" fill="white"/>
<defs>
<radialGradient id="paint0_radial_1233_9841" cx="0" cy="0" r="1" gradientUnits="userSpaceOnUse" gradientTransform="translate(0.687574 12.0008) scale(23.8602)">
<stop stop-color="#5D9DF6"/>
<stop offset="1" stop-color="#006FFF"/>
</radialGradient>
</defs>
</svg>
