<svg width="16" height="16" viewBox="0 0 16 16" fill="none" xmlns="http://www.w3.org/2000/svg">
<path d="M7.44175 1.98999L2.62488 4.47124V10.0175L7.43738 13.045L12.2499 10.0175V4.47124L7.44175 1.98999ZM6.663 10.6987L4.14613 9.17187V6.34937L6.663 7.84937V10.6987ZM4.98988 5.04999L7.4505 3.74999L10.013 5.05062L7.4505 6.48186L4.98988 5.04999ZM8.16425 10.7019V7.85062L10.7268 6.35062V9.17312L8.16425 10.7019Z" fill="white"/>
<path d="M11.3861 1.68744C11.1478 1.70751 10.9108 1.74047 10.6761 1.78619C10.4573 1.82932 10.2555 1.87869 10.0748 1.92494C9.71295 2.01869 9.42733 2.09557 9.2292 2.15182C9.15185 2.17125 9.07305 2.18442 8.99358 2.19119C8.93733 2.20307 8.9017 2.19432 8.8917 2.17244C8.8817 2.15057 8.8917 2.11744 8.92733 2.07182C8.97794 2.00881 9.03514 1.9514 9.09795 1.90057C9.34059 1.71375 9.60076 1.5509 9.87483 1.41432C10.0738 1.31358 10.278 1.22366 10.4867 1.14494C10.739 1.04809 10.998 0.96976 11.2617 0.910565L11.3711 0.88869L11.4836 0.86619C11.5586 0.854315 11.6373 0.840565 11.7173 0.834315C11.7973 0.828065 11.878 0.816815 11.9617 0.80994C12.0455 0.803065 12.1323 0.80994 12.2198 0.80994C12.404 0.811041 12.5878 0.827557 12.7692 0.859315C12.9696 0.894974 13.1656 0.952397 13.3536 1.03057C13.5576 1.11931 13.7487 1.23514 13.9217 1.37494L13.9886 1.42994C14.0105 1.44869 14.033 1.46744 14.0511 1.48744L14.1136 1.54994C14.1357 1.56949 14.1565 1.59036 14.1761 1.61244C14.2173 1.65432 14.2567 1.69807 14.2942 1.74432C14.3135 1.76671 14.3317 1.79007 14.3486 1.81432L14.403 1.88557L14.453 1.95932C14.4698 1.98494 14.4855 2.01057 14.5005 2.03619L14.5242 2.07369C14.5307 2.08735 14.5382 2.10052 14.5467 2.11307L14.5892 2.19307L14.6286 2.27307L14.6492 2.31432L14.6661 2.35557L14.7023 2.43744L14.7342 2.52119L14.7498 2.56369L14.7636 2.60619L14.7923 2.69182L14.8167 2.77682C14.8188 2.79204 14.8228 2.80694 14.8286 2.82119L14.8386 2.86432L14.8592 2.95119L14.878 3.03807L14.8867 3.08244V3.12494L14.8998 3.21432C14.9329 3.44884 14.9474 3.68563 14.943 3.92244C14.938 4.15965 14.9186 4.39634 14.8848 4.63119C14.8127 5.10668 14.6983 5.57479 14.543 6.02994C14.3828 6.49703 14.1924 6.9532 13.973 7.39557C13.7456 7.85185 13.4935 8.29542 13.218 8.72432C12.642 9.61834 11.9835 10.4564 11.2511 11.2274C10.5221 12.0017 9.72165 12.7054 8.86045 13.3293C8.44659 13.6269 8.01679 13.9017 7.57295 14.1524C7.14308 14.3962 6.69752 14.6113 6.2392 14.7962C5.79296 14.9761 5.33126 15.115 4.85983 15.2112C4.62699 15.2574 4.39155 15.2893 4.15483 15.3068C3.9177 15.3256 3.67946 15.3256 3.44233 15.3068L3.2717 15.2862L3.18733 15.2693L3.09795 15.2499L3.0092 15.2331L2.9217 15.2124C2.86358 15.1956 2.80545 15.1818 2.75108 15.1631C2.63479 15.1267 2.52083 15.0833 2.40983 15.0331C2.35483 15.0074 2.3017 14.9818 2.2492 14.9531L2.17045 14.9087L2.09358 14.8606C1.99469 14.7975 1.90068 14.7271 1.81233 14.6499C1.76608 14.6124 1.72483 14.5712 1.68733 14.5318C1.64983 14.4924 1.6067 14.4468 1.5692 14.4068C1.42463 14.2397 1.30351 14.0536 1.2092 13.8537C1.12179 13.6705 1.05533 13.478 1.01108 13.2799C0.970486 13.1003 0.944774 12.9176 0.934204 12.7337V12.2299C0.937289 12.1517 0.944592 12.0737 0.956079 11.9962C0.958701 11.9578 0.963921 11.9195 0.971704 11.8818C0.976704 11.8437 0.981704 11.8081 0.988579 11.7724C1.03406 11.5058 1.09797 11.2427 1.17983 10.9849C1.2567 10.7512 1.33858 10.5443 1.4192 10.3599C1.53917 10.0789 1.68722 9.81064 1.86108 9.55931C1.90681 9.49089 1.96029 9.42797 2.02045 9.37181C2.06358 9.33369 2.09608 9.32056 2.11733 9.33056C2.13858 9.34056 2.14983 9.37494 2.1517 9.43119C2.14882 9.51106 2.13899 9.59052 2.12233 9.66869C2.0867 9.86994 2.0167 10.1587 1.9417 10.5224C1.90545 10.7049 1.86795 10.9081 1.83545 11.1306C1.80147 11.3671 1.78061 11.6054 1.77295 11.8443V12.3293L1.7817 12.4299C1.7836 12.4632 1.7882 12.4962 1.79545 12.5287C1.80045 12.5631 1.80545 12.5956 1.81045 12.6281C1.83295 12.7607 1.86618 12.8914 1.90983 13.0187C1.95376 13.1456 2.01095 13.2675 2.08045 13.3824C2.1475 13.4951 2.22903 13.5985 2.32295 13.6899L2.39608 13.7568C2.42358 13.7768 2.44733 13.7974 2.47483 13.8193C2.52894 13.8594 2.58598 13.8953 2.64545 13.9268C2.91757 14.0615 3.21684 14.1322 3.52045 14.1337C3.69173 14.1373 3.86305 14.1282 4.03295 14.1062C4.21822 14.0819 4.40188 14.0466 4.58295 14.0006C4.97486 13.8986 5.35747 13.7637 5.7267 13.5974C6.12526 13.4187 6.51245 13.2156 6.88608 12.9893C7.28134 12.7504 7.66432 12.4917 8.03358 12.2143C8.81682 11.6251 9.54862 10.9705 10.2211 10.2574C10.8956 9.54767 11.509 8.78225 12.0548 7.96932C12.3134 7.58393 12.5512 7.18503 12.7673 6.77432C12.9729 6.38721 13.1547 5.98793 13.3117 5.57869C13.4587 5.20102 13.573 4.81148 13.6536 4.41432C13.6905 4.23039 13.7166 4.04444 13.7317 3.85744C13.7448 3.68352 13.7448 3.50886 13.7317 3.33494C13.7144 3.03504 13.6289 2.74305 13.4817 2.48119C13.4737 2.46644 13.4647 2.45224 13.4548 2.43869C13.4461 2.42494 13.4373 2.40932 13.4273 2.39619C13.4083 2.36793 13.3875 2.34099 13.3648 2.31557C13.2512 2.16046 13.1065 2.03081 12.9398 1.93494C12.8229 1.87134 12.6992 1.82102 12.5711 1.78494C12.1846 1.68469 11.7837 1.65171 11.3861 1.68744Z" fill="white"/>
</svg>
