<svg width="21" height="8" viewBox="0 0 21 8" fill="none" xmlns="http://www.w3.org/2000/svg">
<path d="M17.8713 4.30029C17.854 4.29336 17.8506 4.28989 17.8471 4.28989C17.4764 4.26911 17.4764 4.26911 17.3828 4.60864C17.1022 5.66191 16.825 6.71517 16.5513 7.76843C16.5236 7.87237 16.4855 7.90702 16.3711 7.90702C15.8688 7.90009 15.3664 7.90009 14.8605 7.90702C14.7531 7.90702 14.6596 7.88623 14.5695 7.82386C14.476 7.75803 14.3755 7.69567 14.275 7.6437C14.2023 7.60559 14.1953 7.56055 14.2161 7.48779C14.4898 6.46225 14.7601 5.4367 15.0372 4.41116C15.058 4.3384 15.0546 4.30029 14.9749 4.26218C14.8779 4.21714 14.7913 4.15477 14.7046 4.09934C14.6942 4.10973 14.6838 4.1132 14.6838 4.11666C14.6735 4.25525 14.5903 4.28297 14.4586 4.2795C14.2092 4.26911 13.9597 4.2795 13.7103 4.27604C13.6444 4.27604 13.6029 4.28643 13.5855 4.35919C13.447 4.90314 13.3014 5.44363 13.1525 6.01877C13.3014 5.9668 13.4366 5.93562 13.5578 5.87672C13.6722 5.82128 13.7657 5.82475 13.8627 5.90097C13.9182 5.94254 13.9771 5.98412 14.0394 6.01184C14.2092 6.07767 14.2438 6.19547 14.23 6.36177C14.1988 6.73942 14.1884 7.12053 14.1607 7.50165C14.1572 7.54322 14.1226 7.60559 14.0879 7.61945C13.4816 7.8689 12.858 8.03521 12.1927 7.99363C11.9641 7.97977 11.7527 7.91395 11.5587 7.79961C11.3647 7.68874 11.1741 7.57787 10.987 7.45661C10.7307 7.2903 10.6579 7.03738 10.644 6.75674C10.6267 6.40335 10.7376 6.07074 10.8277 5.7312C10.9455 5.28079 11.0667 4.83385 11.1845 4.38344C11.1915 4.35572 11.1949 4.32801 11.1984 4.30375C11.0806 4.23446 10.9663 4.16517 10.8381 4.08894C10.8173 4.1617 10.7999 4.2206 10.7792 4.28989C10.4362 4.28989 10.0897 4.29336 9.74669 4.28643C9.64967 4.28643 9.61156 4.31415 9.58731 4.40423C9.28935 5.53371 8.98792 6.6632 8.68996 7.79268C8.66571 7.88969 8.62413 7.91395 8.52019 7.91395C8.01781 7.90702 7.51543 7.91394 7.00959 7.90702C6.93337 7.90702 6.85715 7.8689 6.78092 7.84465C6.75667 7.83772 6.73935 7.8204 6.71856 7.80654C6.60076 7.72685 6.42406 7.67142 6.37556 7.56401C6.33051 7.46354 6.42406 7.30763 6.45871 7.17597C6.71163 6.22665 6.96455 5.28079 7.21401 4.33147C7.21747 4.32108 7.21747 4.30722 7.21747 4.29682C7.09967 4.22753 6.98534 4.15824 6.85715 4.08201C6.52454 5.36048 6.19539 6.63202 5.86625 7.91395C5.54057 7.91395 5.21835 7.91395 4.89267 7.91395C4.7818 7.91395 4.66747 7.90355 4.5566 7.91741C4.2136 7.95899 3.91564 7.8689 3.64539 7.66102C3.5761 7.60559 3.55877 7.56748 3.57956 7.48779C3.84288 6.50729 4.10966 5.52332 4.36604 4.53935C4.41108 4.36612 4.42148 4.18595 4.44573 4.00926C4.43187 4.00233 4.42148 3.99193 4.40762 3.985C4.30714 4.02658 4.2032 4.06469 4.10966 4.1132C3.8602 4.24832 3.65925 4.43195 3.47562 4.64676C3.29892 4.8581 3.27467 5.11795 3.20538 5.36048C2.97324 6.20586 2.74804 7.05471 2.51937 7.91395C2.47087 7.91395 2.42236 7.91395 2.37386 7.91395C1.87148 7.91395 1.3691 7.91048 0.863257 7.91395C0.759317 7.91395 0.669235 7.89662 0.586083 7.83772C0.464819 7.75457 0.277727 7.7026 0.232686 7.59173C0.187645 7.48433 0.277727 7.31802 0.312374 7.17943C0.707346 5.68962 1.10578 4.19981 1.49729 2.71C1.52155 2.61299 1.56312 2.59567 1.65667 2.59567C2.10708 2.59913 2.55402 2.59567 3.00443 2.59913C3.09797 2.59913 3.19498 2.62685 3.32318 2.64417C3.58996 2.45015 3.91564 2.27692 4.28289 2.18684C4.7333 2.07597 5.18717 2.00667 5.64451 2.14526C5.75884 2.17991 5.86278 2.23881 5.96672 2.29424C6.09145 2.36353 6.20925 2.45015 6.33398 2.51944C6.60422 2.66843 6.78439 2.87977 6.86754 3.1812C6.91951 2.98371 6.97148 2.78623 7.02691 2.58181C7.18629 2.58181 7.34566 2.57142 7.50158 2.58527C7.64016 2.59913 7.67827 2.54023 7.71638 2.4259C7.82032 2.09329 7.9208 1.75722 8.06632 1.44193C8.29845 0.953412 8.65185 0.55151 9.14383 0.277801C9.73976 -0.054808 10.3669 -0.0617377 11.0113 0.114961C11.4167 0.22583 11.7666 0.437176 12.1131 0.672774C11.8809 1.12318 11.6523 1.57359 11.4374 1.99628C11.24 1.94431 11.0633 1.88541 10.8762 1.85076C10.6198 1.79879 10.4015 1.88194 10.2664 2.10368C10.1798 2.2492 10.1243 2.41204 10.0446 2.5922C10.3911 2.5922 10.7099 2.5333 10.942 2.80008C11.0113 2.6615 11.1222 2.5922 11.2746 2.5922C11.3647 2.5922 11.4582 2.58874 11.5483 2.5922C11.628 2.59567 11.6627 2.56795 11.6834 2.49173C11.8532 1.8369 12.0299 1.18555 12.2066 0.530722C12.2101 0.523792 12.2135 0.516863 12.2239 0.492611H12.3487C12.8545 0.492611 13.3638 0.496075 13.8696 0.492611C13.9736 0.492611 14.0637 0.506469 14.1468 0.568833C14.2161 0.620804 14.2923 0.658915 14.3651 0.70742C14.566 0.835613 14.5453 0.76632 14.4829 1.00538C14.3512 1.50083 14.2161 1.99628 14.081 2.48826C14.0741 2.51945 14.0706 2.55063 14.0637 2.59913C14.3443 2.55409 14.5903 2.6026 14.8224 2.82087C14.8051 2.57835 14.9506 2.59913 15.0858 2.60606C15.1239 2.60953 15.162 2.60606 15.1966 2.60606C15.5223 2.60606 15.5188 2.60606 15.5951 2.30464C15.8549 1.27563 16.4924 0.548045 17.5283 0.18079C18.3564 -0.113708 19.1637 -0.0270909 19.919 0.419852C20.2689 0.627733 20.605 0.856401 20.9445 1.07814C20.9618 1.08853 20.9757 1.10586 21 1.12665C20.65 1.57705 20.3001 2.024 19.9363 2.49173C19.7388 2.35314 19.5032 2.2492 19.3646 2.07597C19.1325 1.78493 18.4569 1.77801 18.204 2.04825C18.0619 2.20416 17.9441 2.37046 17.9129 2.59567C17.9718 2.59567 18.0203 2.59567 18.0688 2.59567C18.7063 2.59567 19.3404 2.59913 19.9779 2.5922C20.0922 2.5922 20.1858 2.61299 20.2793 2.67882C20.3728 2.74465 20.4699 2.80701 20.5738 2.85898C20.65 2.8971 20.6535 2.9456 20.6362 3.01489C20.21 4.60864 19.7838 6.2024 19.3612 7.79615C19.3369 7.88276 19.3023 7.91048 19.2087 7.90702C18.689 7.90355 18.1693 7.90702 17.6496 7.90355C17.5699 7.90355 17.4833 7.8689 17.4071 7.83426C17.3239 7.79615 17.2512 7.74418 17.1749 7.69567C16.9775 7.56748 16.9948 7.63677 17.0572 7.39424C17.3205 6.37909 17.5907 5.36741 17.8575 4.35226C17.8679 4.33147 17.8679 4.31761 17.8713 4.30029ZM19.4305 1.89234C19.576 1.70871 19.7111 1.53548 19.8428 1.36224C19.9779 1.18901 20.113 1.01231 20.2481 0.839078C19.9016 0.534187 19.3092 0.260477 18.8865 0.201578C17.6496 0.0318085 16.4474 0.676239 15.9554 1.7884C15.8341 2.06557 15.7614 2.36354 15.6747 2.65457C15.6505 2.73426 15.6193 2.76544 15.5327 2.76197C15.3837 2.75504 15.2347 2.75504 15.0823 2.76197C15.0476 2.76197 14.9922 2.79662 14.9853 2.82434C14.8952 3.14309 14.8155 3.46184 14.7254 3.80137H15.356C15.0338 5.01748 14.7185 6.21279 14.4032 7.41157H15.8549C16.1737 6.20932 16.4924 5.01055 16.8077 3.81177H18.1693C17.8506 5.01748 17.5353 6.20932 17.2165 7.41157H18.6682C19.084 5.86632 19.4997 4.32108 19.9224 2.75504H17.0849C17.1542 2.50559 17.2096 2.27692 17.2858 2.05518C17.362 1.83344 17.4972 1.64635 17.7016 1.51469C18.0238 1.30334 18.3703 1.33106 18.7167 1.4454C18.9904 1.53201 19.2156 1.69485 19.4305 1.89234ZM3.7528 7.43582C4.2136 7.43582 4.65361 7.43235 5.09363 7.43928C5.18024 7.43928 5.21142 7.41503 5.23568 7.33188C5.49553 6.33752 5.76231 5.34316 6.02562 4.34879C6.13303 3.93996 6.2335 3.5346 6.20232 3.10844C6.17114 2.68228 5.93554 2.38432 5.50592 2.29771C5.29111 2.25267 5.05898 2.25613 4.8407 2.27692C4.22053 2.33235 3.66618 2.55063 3.21577 2.97678C3.06679 3.11883 2.93513 3.27474 2.77229 3.44798C2.83812 3.20892 2.89356 2.99757 2.95246 2.7793H1.66013C1.24784 4.33147 0.832075 5.88018 0.419778 7.43582H1.87494C1.88534 7.40464 1.89919 7.38038 1.90612 7.35267C2.13133 6.50036 2.36693 5.65151 2.57827 4.7992C2.65103 4.5047 2.78962 4.25525 3.00443 4.04044C3.26081 3.78059 3.55531 3.57617 3.9295 3.50341C4.24478 3.44105 4.5081 3.59349 4.55314 3.89839C4.58085 4.08894 4.57392 4.29336 4.53235 4.48045C4.42494 4.95165 4.28982 5.41938 4.16856 5.88711C4.02997 6.39988 3.89138 6.90919 3.7528 7.43582ZM10.4188 2.75504H9.23738C9.33785 2.43629 9.40715 2.12794 9.53187 1.84037C9.70164 1.44886 9.98228 1.3172 10.4223 1.37957C10.5643 1.40036 10.7029 1.44193 10.8588 1.47658C11.0321 1.14397 11.2088 0.800967 11.3889 0.44757C10.8034 0.201578 10.2179 0.0803139 9.60463 0.288194C8.95327 0.506469 8.4994 0.949948 8.22223 1.54587C8.06632 1.88541 7.96238 2.25267 7.85151 2.60953C7.8134 2.73079 7.76489 2.7689 7.64016 2.75851C7.51197 2.74811 7.38378 2.75158 7.25212 2.75851C7.21747 2.76197 7.16204 2.78969 7.15164 2.81741C7.06156 3.13962 6.97841 3.4653 6.88833 3.8083H7.52236C7.20015 5.01748 6.8814 6.21279 6.56265 7.41157C6.60076 7.4185 6.61808 7.42196 6.63887 7.42196C7.06849 7.42196 7.49465 7.4185 7.92426 7.42543C8.01088 7.42543 8.02474 7.38038 8.04206 7.31802C8.18412 6.78446 8.32617 6.2509 8.46822 5.71734C8.63799 5.08331 8.80776 4.44927 8.97753 3.80484C9.02603 3.80484 9.07107 3.80484 9.11611 3.80484C9.42447 3.80484 9.73283 3.80484 10.0377 3.80484C10.0932 3.80484 10.1417 3.80484 10.159 3.73555C10.2456 3.42026 10.3288 3.09805 10.4188 2.75504ZM13.5128 6.07074C13.3777 6.11231 13.2633 6.15736 13.1421 6.18854C12.7436 6.29248 12.3383 6.192 12.4872 5.62033C12.6362 5.03826 12.7921 4.45966 12.9446 3.8776C12.9619 3.80484 13.0035 3.79791 13.0693 3.79791C13.343 3.80138 13.6167 3.80138 13.8939 3.79791C13.932 3.79791 14.0013 3.77019 14.0082 3.74248C14.1052 3.4168 14.1919 3.08765 14.2889 2.74811H13.2599C13.447 2.04478 13.6306 1.35531 13.8177 0.665844C13.79 0.658915 13.7761 0.651985 13.7657 0.651985C13.3257 0.651985 12.8857 0.651986 12.4422 0.648521C12.3625 0.648521 12.3487 0.686632 12.3313 0.748996C12.1616 1.3865 11.9883 2.024 11.8186 2.6615C11.8012 2.73079 11.7735 2.75158 11.7008 2.75158C11.5518 2.74811 11.4028 2.75158 11.2504 2.74811C11.1811 2.74465 11.1464 2.76544 11.1326 2.83473C11.1048 2.96292 11.0667 3.09112 11.0321 3.21584C10.9801 3.40294 10.9281 3.59003 10.8692 3.79791H11.486C11.479 3.83602 11.479 3.85335 11.4756 3.87413C11.3439 4.37998 11.2053 4.88582 11.0771 5.39513C10.9766 5.79356 10.8692 6.19547 10.8069 6.59737C10.7341 7.04431 10.9593 7.34574 11.4097 7.45314C11.5934 7.49472 11.7874 7.50858 11.9779 7.50858C12.4076 7.51204 12.8095 7.38039 13.2148 7.25912C13.3985 7.20369 13.4851 7.13093 13.4781 6.93344C13.4712 6.6528 13.4989 6.3687 13.5128 6.07074Z" fill="white"/>
</svg>
