<svg width="16" height="16" viewBox="0 0 16 16" fill="none" xmlns="http://www.w3.org/2000/svg">
<path d="M13.0815 4.10882C12.1008 3.15055 10.7593 2.55998 9.27985 2.55998C6.27541 2.55998 3.83985 4.99554 3.83985 7.99998C3.83985 11.0044 6.27541 13.44 9.27985 13.44C10.7593 13.44 12.1008 12.8494 13.0815 11.8911C11.9117 13.4165 10.0706 14.4 7.99985 14.4C4.46521 14.4 1.59985 11.5346 1.59985 7.99998C1.59985 4.46534 4.46521 1.59998 7.99985 1.59998C10.0706 1.59998 11.9117 2.58345 13.0815 4.10882Z" fill="white"/>
<path d="M5.2146 11.113C5.99916 11.8796 7.07236 12.352 8.25592 12.352C10.6595 12.352 12.6079 10.4036 12.6079 8C12.6079 5.59644 10.6595 3.648 8.25592 3.648C7.07236 3.648 5.99916 4.12044 5.2146 4.88704C6.15044 3.66678 7.62328 2.88 9.27992 2.88C12.1076 2.88 14.3999 5.17232 14.3999 8C14.3999 10.8277 12.1076 13.12 9.27992 13.12C7.62328 13.12 6.15044 12.3332 5.2146 11.113Z" fill="white"/>
<path fill-rule="evenodd" clip-rule="evenodd" d="M11.8399 8.00003C11.8399 10.1208 10.1207 11.84 7.99991 11.84C5.87915 11.84 4.15991 10.1208 4.15991 8.00003C4.15991 5.87927 5.87915 4.16003 7.99991 4.16003C10.1207 4.16003 11.8399 5.87927 11.8399 8.00003ZM10.5599 8.00003C10.5599 9.41387 9.41375 10.56 7.99991 10.56C6.58607 10.56 5.43991 9.41387 5.43991 8.00003C5.43991 6.58619 6.58607 5.44003 7.99991 5.44003C9.41375 5.44003 10.5599 6.58619 10.5599 8.00003Z" fill="white"/>
</svg>
